# 3ds Max Wavefront OBJ Exporter v0.99 - (c)2007 guruware
# File Created: 17.02.2025 00:01:58

mtllib Ladder_Model.mtl

#
# object Ladder
#

v  5.2203 53.9444 -2.5939
v  5.5150 53.9444 -2.6197
v  6.1729 53.9444 4.9008
v  5.8783 53.9444 4.9265
v  5.2203 54.4095 -2.5939
v  5.8783 54.4095 4.9265
v  6.1729 54.4095 4.9008
v  5.5150 54.4095 -2.6197
v  5.1522 53.9950 -2.5879
v  5.8102 53.9950 4.9325
v  5.8102 54.3589 4.9325
v  5.1522 54.3589 -2.5879
v  6.2410 53.9950 4.8948
v  5.5831 53.9950 -2.6256
v  5.5831 54.3589 -2.6256
v  6.2410 54.3589 4.8948
v  5.5661 53.9570 -2.6241
v  6.2240 53.9570 4.8963
v  5.8272 53.9570 4.9310
v  5.1692 53.9570 -2.5894
v  5.1692 54.3968 -2.5894
v  5.8272 54.3968 4.9310
v  6.2240 54.3968 4.8963
v  5.5661 54.3968 -2.6241
v  5.2203 48.1340 -2.5939
v  5.5150 48.1340 -2.6197
v  6.1729 48.1340 4.9008
v  5.8783 48.1340 4.9265
v  5.2203 48.5991 -2.5939
v  5.8783 48.5991 4.9265
v  6.1729 48.5991 4.9008
v  5.5150 48.5991 -2.6197
v  5.1522 48.1846 -2.5879
v  5.8102 48.1846 4.9325
v  5.8102 48.5485 4.9325
v  5.1522 48.5485 -2.5879
v  6.2410 48.1846 4.8948
v  5.5831 48.1846 -2.6256
v  5.5831 48.5485 -2.6256
v  6.2410 48.5485 4.8948
v  5.5661 48.1467 -2.6241
v  6.2240 48.1467 4.8963
v  5.8272 48.1467 4.9310
v  5.1692 48.1467 -2.5894
v  5.1692 48.5865 -2.5894
v  5.8272 48.5865 4.9310
v  6.2240 48.5865 4.8963
v  5.5661 48.5865 -2.6241
v  5.7974 -0.5386 -3.1303
v  5.7974 56.3637 -3.1303
v  5.8449 56.3637 -2.5878
v  5.8449 -0.5386 -2.5878
v  4.8535 -0.5386 -3.0478
v  4.9010 -0.5386 -2.5052
v  4.9010 56.3637 -2.5052
v  4.8535 56.3637 -3.0478
v  6.5398 -0.5386 5.3546
v  6.4923 -0.5386 4.8121
v  6.4923 56.3637 4.8121
v  6.5398 56.3637 5.3546
v  5.5958 -0.5386 5.4372
v  5.5958 56.3637 5.4372
v  5.5484 56.3637 4.8947
v  5.5484 -0.5386 4.8947
v  5.2203 42.3237 -2.5939
v  5.5150 42.3237 -2.6197
v  6.1729 42.3237 4.9008
v  5.8783 42.3237 4.9265
v  5.2203 42.7888 -2.5939
v  5.8783 42.7888 4.9265
v  6.1729 42.7888 4.9008
v  5.5150 42.7888 -2.6197
v  5.1522 42.3743 -2.5879
v  5.8102 42.3743 4.9325
v  5.8102 42.7382 4.9325
v  5.1522 42.7382 -2.5879
v  6.2410 42.3743 4.8948
v  5.5831 42.3743 -2.6256
v  5.5831 42.7382 -2.6256
v  6.2410 42.7382 4.8948
v  5.5661 42.3363 -2.6241
v  6.2240 42.3363 4.8963
v  5.8272 42.3363 4.9310
v  5.1692 42.3363 -2.5894
v  5.1692 42.7761 -2.5894
v  5.8272 42.7761 4.9310
v  6.2240 42.7761 4.8963
v  5.5661 42.7761 -2.6241
v  5.2203 36.5133 -2.5939
v  5.5150 36.5133 -2.6197
v  6.1729 36.5133 4.9008
v  5.8783 36.5133 4.9265
v  5.2203 36.9784 -2.5939
v  5.8783 36.9784 4.9265
v  6.1729 36.9784 4.9008
v  5.5150 36.9784 -2.6197
v  5.1522 36.5639 -2.5879
v  5.8102 36.5639 4.9325
v  5.8102 36.9278 4.9325
v  5.1522 36.9278 -2.5879
v  6.2410 36.5639 4.8948
v  5.5831 36.5639 -2.6256
v  5.5831 36.9278 -2.6256
v  6.2410 36.9278 4.8948
v  5.5661 36.5260 -2.6241
v  6.2240 36.5260 4.8963
v  5.8272 36.5260 4.9310
v  5.1692 36.5260 -2.5894
v  5.1692 36.9658 -2.5894
v  5.8272 36.9658 4.9310
v  6.2240 36.9658 4.8963
v  5.5661 36.9658 -2.6241
v  5.2203 30.7030 -2.5939
v  5.5150 30.7030 -2.6197
v  6.1729 30.7030 4.9008
v  5.8783 30.7030 4.9265
v  5.2203 31.1681 -2.5939
v  5.8783 31.1681 4.9265
v  6.1729 31.1681 4.9008
v  5.5150 31.1681 -2.6197
v  5.1522 30.7536 -2.5879
v  5.8102 30.7536 4.9325
v  5.8102 31.1175 4.9325
v  5.1522 31.1175 -2.5879
v  6.2410 30.7536 4.8948
v  5.5831 30.7536 -2.6256
v  5.5831 31.1175 -2.6256
v  6.2410 31.1175 4.8948
v  5.5661 30.7156 -2.6241
v  6.2240 30.7156 4.8963
v  5.8272 30.7156 4.9310
v  5.1692 30.7156 -2.5894
v  5.1692 31.1554 -2.5894
v  5.8272 31.1554 4.9310
v  6.2240 31.1554 4.8963
v  5.5661 31.1554 -2.6241
v  5.2203 24.8926 -2.5939
v  5.5150 24.8926 -2.6197
v  6.1729 24.8926 4.9008
v  5.8783 24.8926 4.9265
v  5.2203 25.3577 -2.5939
v  5.8783 25.3577 4.9265
v  6.1729 25.3577 4.9008
v  5.5150 25.3577 -2.6197
v  5.1522 24.9432 -2.5879
v  5.8102 24.9432 4.9325
v  5.8102 25.3071 4.9325
v  5.1522 25.3071 -2.5879
v  6.2410 24.9432 4.8948
v  5.5831 24.9432 -2.6256
v  5.5831 25.3071 -2.6256
v  6.2410 25.3071 4.8948
v  5.5661 24.9053 -2.6241
v  6.2240 24.9053 4.8963
v  5.8272 24.9053 4.9310
v  5.1692 24.9053 -2.5894
v  5.1692 25.3451 -2.5894
v  5.8272 25.3451 4.9310
v  6.2240 25.3451 4.8963
v  5.5661 25.3451 -2.6241
v  5.2203 19.0823 -2.5939
v  5.5150 19.0823 -2.6197
v  6.1729 19.0823 4.9008
v  5.8783 19.0823 4.9265
v  5.2203 19.5474 -2.5939
v  5.8783 19.5474 4.9265
v  6.1729 19.5474 4.9008
v  5.5150 19.5474 -2.6197
v  5.1522 19.1329 -2.5879
v  5.8102 19.1329 4.9325
v  5.8102 19.4968 4.9325
v  5.1522 19.4968 -2.5879
v  6.2410 19.1329 4.8948
v  5.5831 19.1329 -2.6256
v  5.5831 19.4968 -2.6256
v  6.2410 19.4968 4.8948
v  5.5661 19.0949 -2.6241
v  6.2240 19.0949 4.8963
v  5.8272 19.0949 4.9310
v  5.1692 19.0949 -2.5894
v  5.1692 19.5347 -2.5894
v  5.8272 19.5347 4.9310
v  6.2240 19.5347 4.8963
v  5.5661 19.5347 -2.6241
v  5.2203 13.2719 -2.5939
v  5.5150 13.2719 -2.6197
v  6.1729 13.2719 4.9008
v  5.8783 13.2719 4.9265
v  5.2203 13.7370 -2.5939
v  5.8783 13.7370 4.9265
v  6.1729 13.7370 4.9008
v  5.5150 13.7370 -2.6197
v  5.1522 13.3225 -2.5879
v  5.8102 13.3225 4.9325
v  5.8102 13.6864 4.9325
v  5.1522 13.6864 -2.5879
v  6.2410 13.3225 4.8948
v  5.5831 13.3225 -2.6256
v  5.5831 13.6864 -2.6256
v  6.2410 13.6864 4.8948
v  5.5661 13.2846 -2.6241
v  6.2240 13.2846 4.8963
v  5.8272 13.2846 4.9310
v  5.1692 13.2846 -2.5894
v  5.1692 13.7244 -2.5894
v  5.8272 13.7244 4.9310
v  6.2240 13.7244 4.8963
v  5.5661 13.7244 -2.6241
v  5.2203 7.4616 -2.5939
v  5.5150 7.4616 -2.6197
v  6.1729 7.4616 4.9008
v  5.8783 7.4616 4.9265
v  5.2203 7.9267 -2.5939
v  5.8783 7.9267 4.9265
v  6.1729 7.9267 4.9008
v  5.5150 7.9267 -2.6197
v  5.1522 7.5122 -2.5879
v  5.8102 7.5122 4.9325
v  5.8102 7.8761 4.9325
v  5.1522 7.8761 -2.5879
v  6.2410 7.5122 4.8948
v  5.5831 7.5122 -2.6256
v  5.5831 7.8761 -2.6256
v  6.2410 7.8761 4.8948
v  5.5661 7.4742 -2.6241
v  6.2240 7.4742 4.8963
v  5.8272 7.4742 4.9310
v  5.1692 7.4742 -2.5894
v  5.1692 7.9140 -2.5894
v  5.8272 7.9140 4.9310
v  6.2240 7.9140 4.8963
v  5.5661 7.9140 -2.6241
v  5.2203 1.6512 -2.5939
v  5.5150 1.6512 -2.6197
v  6.1729 1.6512 4.9008
v  5.8783 1.6512 4.9265
v  5.2203 2.1163 -2.5939
v  5.8783 2.1163 4.9265
v  6.1729 2.1163 4.9008
v  5.5150 2.1163 -2.6197
v  5.1522 1.7018 -2.5879
v  5.8102 1.7018 4.9325
v  5.8102 2.0657 4.9325
v  5.1522 2.0657 -2.5879
v  6.2410 1.7018 4.8948
v  5.5831 1.7018 -2.6256
v  5.5831 2.0657 -2.6256
v  6.2410 2.0657 4.8948
v  5.5661 1.6639 -2.6241
v  6.2240 1.6639 4.8963
v  5.8272 1.6639 4.9310
v  5.1692 1.6639 -2.5894
v  5.1692 2.1037 -2.5894
v  5.8272 2.1037 4.9310
v  6.2240 2.1037 4.8963
v  5.5661 2.1037 -2.6241
# 256 vertices

vn -0.1596 -0.9871 0.0140
vn 0.1596 -0.9871 -0.0140
vn -0.1596 0.9871 0.0140
vn 0.1596 0.9871 -0.0140
vn -0.9833 -0.1602 0.0860
vn -0.9833 0.1602 0.0860
vn 0.9833 -0.1602 -0.0860
vn 0.9833 0.1602 -0.0860
vn 0.7044 -0.7071 -0.0616
vn -0.7044 -0.7071 0.0616
vn -0.7045 0.7071 0.0616
vn 0.7045 0.7071 -0.0616
vn 0.5248 -0.5774 -0.6255
vn 0.5248 0.5774 -0.6255
vn 0.6255 0.5774 0.5248
vn 0.6255 -0.5774 0.5248
vn -0.6255 -0.5774 -0.5248
vn -0.5248 -0.5774 0.6255
vn -0.5248 0.5774 0.6255
vn -0.6255 0.5774 -0.5248
# 20 vertex normals

vt 1.0000 0.1580 0.0000
vt 1.0000 0.8420 0.0000
vt 0.0000 0.8420 0.0000
vt 0.0000 0.1580 0.0000
vt 0.0000 0.1088 0.0000
vt 1.0000 0.1088 0.0000
vt 1.0000 0.8912 0.0000
vt 0.0000 0.8912 0.0000
vt 1.0000 1.0000 0.0000
vt 0.0000 1.0000 0.0000
vt 0.0000 0.0000 0.0000
vt 1.0000 0.0000 0.0000
# 12 texture coords

o Ladder
g Ladder
usemtl wire_115169045
s 1
f 1/1/1 2/2/2 3/3/2 4/4/1 
f 5/4/3 6/1/3 7/2/4 8/3/4 
s 2
f 9/5/5 10/6/5 11/7/6 12/8/6 
f 13/5/7 14/6/7 15/7/8 16/8/8 
s 1
f 3/3/2 2/2/2 17/9/9 18/10/9 
f 1/1/1 4/4/1 19/11/10 20/12/10 
f 6/1/3 5/4/3 21/11/11 22/12/11 
f 8/3/4 7/2/4 23/9/12 24/10/12 
s 2
f 10/6/5 9/5/5 20/11/10 19/12/10 
f 12/8/6 11/7/6 22/9/11 21/10/11 
f 14/6/7 13/5/7 18/11/9 17/12/9 
f 16/8/8 15/7/8 24/9/12 23/10/12 
s 1
f 25/1/1 26/2/2 27/3/2 28/4/1 
f 29/4/3 30/1/3 31/2/4 32/3/4 
s 2
f 33/5/5 34/6/5 35/7/6 36/8/6 
f 37/5/7 38/6/7 39/7/8 40/8/8 
s 1
f 27/3/2 26/2/2 41/9/9 42/10/9 
f 25/1/1 28/4/1 43/11/10 44/12/10 
f 30/1/3 29/4/3 45/11/11 46/12/11 
f 32/3/4 31/2/4 47/9/12 48/10/12 
s 2
f 34/6/5 33/5/5 44/11/10 43/12/10 
f 36/8/6 35/7/6 46/9/11 45/10/11 
f 38/6/7 37/5/7 42/11/9 41/12/9 
f 40/8/8 39/7/8 48/9/12 47/10/12 
f 49/12/13 50/9/14 51/10/15 52/11/16 
s 4
f 53/11/17 54/12/18 55/9/19 56/10/20 
s 8
f 49/11/13 52/12/16 54/9/18 53/10/17 
s 16
f 52/11/16 51/12/15 55/9/19 54/10/18 
s 32
f 51/11/15 50/12/14 56/9/20 55/10/19 
s 64
f 50/11/14 49/12/13 53/9/17 56/10/20 
s 2
f 57/12/16 58/11/13 59/10/14 60/9/15 
s 4
f 61/11/18 62/10/19 63/9/20 64/12/17 
s 8
f 57/11/16 61/10/18 64/9/17 58/12/13 
s 16
f 58/11/13 64/10/17 63/9/20 59/12/14 
s 32
f 59/11/14 63/10/20 62/9/19 60/12/15 
s 64
f 60/11/15 62/10/19 61/9/18 57/12/16 
s 1
f 65/1/1 66/2/2 67/3/2 68/4/1 
f 69/4/3 70/1/3 71/2/4 72/3/4 
s 2
f 73/5/5 74/6/5 75/7/6 76/8/6 
f 77/5/7 78/6/7 79/7/8 80/8/8 
s 1
f 67/3/2 66/2/2 81/9/9 82/10/9 
f 65/1/1 68/4/1 83/11/10 84/12/10 
f 70/1/3 69/4/3 85/11/11 86/12/11 
f 72/3/4 71/2/4 87/9/12 88/10/12 
s 2
f 74/6/5 73/5/5 84/11/10 83/12/10 
f 76/8/6 75/7/6 86/9/11 85/10/11 
f 78/6/7 77/5/7 82/11/9 81/12/9 
f 80/8/8 79/7/8 88/9/12 87/10/12 
s 1
f 89/1/1 90/2/2 91/3/2 92/4/1 
f 93/4/3 94/1/3 95/2/4 96/3/4 
s 2
f 97/5/5 98/6/5 99/7/6 100/8/6 
f 101/5/7 102/6/7 103/7/8 104/8/8 
s 1
f 91/3/2 90/2/2 105/9/9 106/10/9 
f 89/1/1 92/4/1 107/11/10 108/12/10 
f 94/1/3 93/4/3 109/11/11 110/12/11 
f 96/3/4 95/2/4 111/9/12 112/10/12 
s 2
f 98/6/5 97/5/5 108/11/10 107/12/10 
f 100/8/6 99/7/6 110/9/11 109/10/11 
f 102/6/7 101/5/7 106/11/9 105/12/9 
f 104/8/8 103/7/8 112/9/12 111/10/12 
s 1
f 113/1/1 114/2/2 115/3/2 116/4/1 
f 117/4/3 118/1/3 119/2/4 120/3/4 
s 2
f 121/5/5 122/6/5 123/7/6 124/8/6 
f 125/5/7 126/6/7 127/7/8 128/8/8 
s 1
f 115/3/2 114/2/2 129/9/9 130/10/9 
f 113/1/1 116/4/1 131/11/10 132/12/10 
f 118/1/3 117/4/3 133/11/11 134/12/11 
f 120/3/4 119/2/4 135/9/12 136/10/12 
s 2
f 122/6/5 121/5/5 132/11/10 131/12/10 
f 124/8/6 123/7/6 134/9/11 133/10/11 
f 126/6/7 125/5/7 130/11/9 129/12/9 
f 128/8/8 127/7/8 136/9/12 135/10/12 
s 1
f 137/1/1 138/2/2 139/3/2 140/4/1 
f 141/4/3 142/1/3 143/2/4 144/3/4 
s 2
f 145/5/5 146/6/5 147/7/6 148/8/6 
f 149/5/7 150/6/7 151/7/8 152/8/8 
s 1
f 139/3/2 138/2/2 153/9/9 154/10/9 
f 137/1/1 140/4/1 155/11/10 156/12/10 
f 142/1/3 141/4/3 157/11/11 158/12/11 
f 144/3/4 143/2/4 159/9/12 160/10/12 
s 2
f 146/6/5 145/5/5 156/11/10 155/12/10 
f 148/8/6 147/7/6 158/9/11 157/10/11 
f 150/6/7 149/5/7 154/11/9 153/12/9 
f 152/8/8 151/7/8 160/9/12 159/10/12 
s 1
f 161/1/1 162/2/2 163/3/2 164/4/1 
f 165/4/3 166/1/3 167/2/4 168/3/4 
s 2
f 169/5/5 170/6/5 171/7/6 172/8/6 
f 173/5/7 174/6/7 175/7/8 176/8/8 
s 1
f 163/3/2 162/2/2 177/9/9 178/10/9 
f 161/1/1 164/4/1 179/11/10 180/12/10 
f 166/1/3 165/4/3 181/11/11 182/12/11 
f 168/3/4 167/2/4 183/9/12 184/10/12 
s 2
f 170/6/5 169/5/5 180/11/10 179/12/10 
f 172/8/6 171/7/6 182/9/11 181/10/11 
f 174/6/7 173/5/7 178/11/9 177/12/9 
f 176/8/8 175/7/8 184/9/12 183/10/12 
s 1
f 185/1/1 186/2/2 187/3/2 188/4/1 
f 189/4/3 190/1/3 191/2/4 192/3/4 
s 2
f 193/5/5 194/6/5 195/7/6 196/8/6 
f 197/5/7 198/6/7 199/7/8 200/8/8 
s 1
f 187/3/2 186/2/2 201/9/9 202/10/9 
f 185/1/1 188/4/1 203/11/10 204/12/10 
f 190/1/3 189/4/3 205/11/11 206/12/11 
f 192/3/4 191/2/4 207/9/12 208/10/12 
s 2
f 194/6/5 193/5/5 204/11/10 203/12/10 
f 196/8/6 195/7/6 206/9/11 205/10/11 
f 198/6/7 197/5/7 202/11/9 201/12/9 
f 200/8/8 199/7/8 208/9/12 207/10/12 
s 1
f 209/1/1 210/2/2 211/3/2 212/4/1 
f 213/4/3 214/1/3 215/2/4 216/3/4 
s 2
f 217/5/5 218/6/5 219/7/6 220/8/6 
f 221/5/7 222/6/7 223/7/8 224/8/8 
s 1
f 211/3/2 210/2/2 225/9/9 226/10/9 
f 209/1/1 212/4/1 227/11/10 228/12/10 
f 214/1/3 213/4/3 229/11/11 230/12/11 
f 216/3/4 215/2/4 231/9/12 232/10/12 
s 2
f 218/6/5 217/5/5 228/11/10 227/12/10 
f 220/8/6 219/7/6 230/9/11 229/10/11 
f 222/6/7 221/5/7 226/11/9 225/12/9 
f 224/8/8 223/7/8 232/9/12 231/10/12 
s 1
f 233/1/1 234/2/2 235/3/2 236/4/1 
f 237/4/3 238/1/3 239/2/4 240/3/4 
s 2
f 241/5/5 242/6/5 243/7/6 244/8/6 
f 245/5/7 246/6/7 247/7/8 248/8/8 
s 1
f 235/3/2 234/2/2 249/9/9 250/10/9 
f 233/1/1 236/4/1 251/11/10 252/12/10 
f 238/1/3 237/4/3 253/11/11 254/12/11 
f 240/3/4 239/2/4 255/9/12 256/10/12 
s 2
f 242/6/5 241/5/5 252/11/10 251/12/10 
f 244/8/6 243/7/6 254/9/11 253/10/11 
f 246/6/7 245/5/7 250/11/9 249/12/9 
f 248/8/8 247/7/8 256/9/12 255/10/12 
# 132 polygons

