# 3ds Max Wavefront OBJ Exporter v0.99 - (c)2007 guruware
# File Created: 16.02.2025 23:55:22

mtllib Pillow_Model.mtl

#
# object Pillow
#

v  -4.2251 2.6673 -3.6396
v  -4.2251 2.6636 -0.9123
v  -2.3977 2.6636 -0.9123
v  -2.3977 2.6673 -3.6396
v  -1.9700 2.2393 -3.6394
v  -1.9700 2.2356 -0.9122
v  -1.9700 2.1110 -0.9122
v  -1.9700 2.1148 -3.6394
v  -2.3977 2.3736 -3.9979
v  -2.3977 2.2486 -3.9979
v  -4.2251 2.2486 -3.9979
v  -4.2251 2.3736 -3.9979
v  -4.6529 2.2393 -3.6394
v  -4.6529 2.1148 -3.6394
v  -4.6529 2.1110 -0.9122
v  -4.6529 2.2356 -0.9122
v  -4.2251 1.6868 -3.6396
v  -4.5460 1.7938 -3.6395
v  -4.4925 1.8560 -3.8635
v  -4.2251 1.9243 -3.9083
v  -2.3977 1.6868 -3.6396
v  -2.3977 1.9243 -3.9083
v  -2.1304 1.8560 -3.8635
v  -2.0769 1.7938 -3.6395
v  -4.2251 2.5710 -3.9083
v  -4.4925 2.5157 -3.8635
v  -4.5460 2.5603 -3.6395
v  -2.0769 2.5603 -3.6395
v  -2.1304 2.5157 -3.8635
v  -2.3977 2.5710 -3.9083
v  -2.0769 2.2501 -3.9082
v  -2.0769 2.1252 -3.9082
v  -4.5460 2.1252 -3.9082
v  -4.5460 2.2501 -3.9082
v  -4.2251 1.6830 -0.9123
v  -4.5460 1.7900 -0.9123
v  -2.0769 2.5566 -0.9123
v  -2.0769 1.7900 -0.9123
v  -4.5460 2.5566 -0.9123
v  -4.2251 2.5624 1.7972
v  -2.3977 2.5624 1.7972
v  -1.9700 2.1344 1.7972
v  -1.9700 2.0098 1.7972
v  -4.6529 2.0098 1.7972
v  -4.6529 2.1344 1.7972
v  -4.2251 1.5818 1.7972
v  -4.5460 1.6888 1.7972
v  -2.0769 2.4554 1.7972
v  -2.0769 1.6888 1.7972
v  -4.5460 2.4554 1.7972
v  -2.3977 1.6830 -0.9123
v  -2.3977 1.5818 1.7972
v  -4.2251 2.6673 7.2340
v  -2.3977 2.6673 7.2340
v  -2.3977 2.6636 4.5067
v  -4.2251 2.6636 4.5067
v  -1.9700 2.2393 7.2338
v  -1.9700 2.1148 7.2338
v  -1.9700 2.1110 4.5066
v  -1.9700 2.2356 4.5066
v  -2.3977 2.3736 7.5923
v  -4.2251 2.3736 7.5923
v  -4.2251 2.2486 7.5923
v  -2.3977 2.2486 7.5923
v  -4.6529 2.2393 7.2338
v  -4.6529 2.2356 4.5066
v  -4.6529 2.1110 4.5066
v  -4.6529 2.1148 7.2338
v  -4.2251 1.6868 7.2340
v  -4.2251 1.9243 7.5027
v  -4.4925 1.8560 7.4579
v  -4.5460 1.7938 7.2339
v  -2.3977 1.6868 7.2340
v  -2.0769 1.7938 7.2339
v  -2.1304 1.8560 7.4579
v  -2.3977 1.9243 7.5027
v  -4.5460 2.5603 7.2339
v  -4.4925 2.5157 7.4579
v  -4.2251 2.5710 7.5027
v  -2.3977 2.5710 7.5027
v  -2.1304 2.5157 7.4579
v  -2.0769 2.5603 7.2339
v  -2.0769 2.2501 7.5027
v  -2.0769 2.1252 7.5027
v  -4.5460 2.1252 7.5027
v  -4.5460 2.2501 7.5027
v  -4.5460 1.7900 4.5067
v  -4.2251 1.6830 4.5067
v  -2.0769 2.5566 4.5067
v  -2.0769 1.7900 4.5067
v  -4.5460 2.5566 4.5067
v  -2.3977 1.6830 4.5067
# 92 vertices

vn -0.1565 0.9775 -0.1412
vn -0.1600 0.9870 0.0160
vn 0.1600 0.9870 0.0160
vn 0.1565 0.9775 -0.1412
vn 0.9760 0.1545 -0.1537
vn 0.9869 0.1616 0.0026
vn 0.9873 -0.1586 -0.0026
vn 0.9748 -0.1571 -0.1581
vn 0.1951 0.2575 -0.9464
vn 0.1364 -0.1388 -0.9809
vn -0.1364 -0.1388 -0.9809
vn -0.1951 0.2575 -0.9464
vn -0.9760 0.1545 -0.1537
vn -0.9748 -0.1571 -0.1581
vn -0.9873 -0.1586 -0.0026
vn -0.9869 0.1616 0.0026
vn -0.1492 -0.9415 -0.3023
vn -0.6982 -0.7015 -0.1427
vn -0.4152 -0.6970 -0.5846
vn -0.0160 -0.5612 -0.8275
vn 0.1492 -0.9415 -0.3023
vn 0.0160 -0.5612 -0.8275
vn 0.4152 -0.6970 -0.5846
vn 0.6982 -0.7015 -0.1427
vn -0.1347 0.7670 -0.6274
vn -0.5790 0.5859 -0.5669
vn -0.7038 0.6998 -0.1220
vn 0.7038 0.6998 -0.1220
vn 0.5790 0.5859 -0.5669
vn 0.1347 0.7670 -0.6274
vn 0.7145 0.1198 -0.6893
vn 0.6815 -0.1440 -0.7175
vn -0.6815 -0.1440 -0.7175
vn -0.7145 0.1198 -0.6893
vn -0.1605 -0.9869 -0.0160
vn -0.7094 -0.7048 -0.0114
vn 0.7051 0.7091 0.0115
vn 0.7094 -0.7048 -0.0114
vn -0.7050 0.7091 0.0115
vn -0.1608 0.9870 -0.0000
vn 0.1608 0.9870 -0.0000
vn 0.9876 0.1570 -0.0000
vn 0.9866 -0.1632 -0.0000
vn -0.9866 -0.1632 -0.0000
vn -0.9876 0.1570 -0.0000
vn -0.1598 -0.9872 -0.0000
vn -0.7028 -0.7114 -0.0000
vn 0.7117 0.7025 -0.0000
vn 0.7028 -0.7114 -0.0000
vn -0.7117 0.7025 -0.0000
vn 0.1605 -0.9869 -0.0160
vn 0.1598 -0.9872 -0.0000
vn -0.1565 0.9775 0.1412
vn 0.1565 0.9775 0.1412
vn 0.1600 0.9870 -0.0160
vn -0.1600 0.9870 -0.0160
vn 0.9760 0.1545 0.1537
vn 0.9748 -0.1571 0.1581
vn 0.9873 -0.1586 0.0026
vn 0.9869 0.1616 -0.0026
vn 0.1951 0.2575 0.9464
vn -0.1951 0.2575 0.9464
vn -0.1364 -0.1388 0.9809
vn 0.1364 -0.1388 0.9809
vn -0.9760 0.1545 0.1537
vn -0.9869 0.1616 -0.0026
vn -0.9873 -0.1586 0.0026
vn -0.9748 -0.1571 0.1581
vn -0.1492 -0.9415 0.3023
vn -0.0160 -0.5612 0.8275
vn -0.4152 -0.6970 0.5846
vn -0.6982 -0.7015 0.1427
vn 0.1492 -0.9415 0.3023
vn 0.6982 -0.7015 0.1427
vn 0.4152 -0.6970 0.5846
vn 0.0160 -0.5612 0.8275
vn -0.7038 0.6998 0.1220
vn -0.5790 0.5859 0.5669
vn -0.1347 0.7670 0.6274
vn 0.1347 0.7670 0.6274
vn 0.5790 0.5859 0.5669
vn 0.7038 0.6998 0.1220
vn 0.7145 0.1198 0.6893
vn 0.6815 -0.1440 0.7175
vn -0.6815 -0.1440 0.7175
vn -0.7145 0.1198 0.6893
vn -0.7094 -0.7048 0.0114
vn -0.1605 -0.9869 0.0160
vn 0.7051 0.7091 -0.0115
vn 0.7094 -0.7048 0.0114
vn -0.7050 0.7091 -0.0115
vn 0.1605 -0.9869 0.0160
# 92 vertex normals

vt 0.1594 0.9691 0.0000
vt 0.1594 0.7338 0.0000
vt 0.8406 0.7338 0.0000
vt 0.8406 0.9691 0.0000
vt 0.9691 0.5635 0.0000
vt 0.7338 0.5635 0.0000
vt 0.7338 0.4365 0.0000
vt 0.9691 0.4365 0.0000
vt 0.1594 0.5638 0.0000
vt 0.1594 0.4362 0.0000
vt 0.8406 0.4362 0.0000
vt 0.8406 0.5638 0.0000
vt 0.0309 0.5635 0.0000
vt 0.0309 0.4365 0.0000
vt 0.2662 0.4365 0.0000
vt 0.2662 0.5635 0.0000
vt 1.0000 0.9691 0.0000
vt 1.0000 1.0000 0.0000
vt 0.8406 1.0000 0.0000
vt 0.1594 1.0000 0.0000
vt 0.0000 1.0000 0.0000
vt 0.0000 0.9691 0.0000
vt 1.0000 0.5638 0.0000
vt 0.9691 1.0000 0.0000
vt 0.9691 0.0000 0.0000
vt 1.0000 0.0000 0.0000
vt 1.0000 0.4362 0.0000
vt 0.0000 0.5638 0.0000
vt 0.0000 0.4362 0.0000
vt 0.0000 0.0000 0.0000
vt 0.1594 0.0000 0.0000
vt 0.8406 0.0000 0.0000
vt 0.0309 1.0000 0.0000
vt 0.0309 0.0000 0.0000
vt 1.0000 0.7338 0.0000
vt 0.7338 0.0000 0.0000
vt 0.2662 1.0000 0.0000
vt 0.1594 0.5000 0.0000
vt 0.8406 0.5000 0.0000
vt 0.5000 0.5635 0.0000
vt 0.5000 0.4365 0.0000
vt 1.0000 0.5000 0.0000
vt 0.5000 0.0000 0.0000
vt 0.5000 1.0000 0.0000
vt 0.0000 0.7338 0.0000
vt 0.7338 1.0000 0.0000
vt 0.2662 0.0000 0.0000
vt 0.0000 0.5000 0.0000
# 48 texture coords

o Pillow
g Pillow
usemtl wire_178222161
s 1
f 1/1/1 2/2/2 3/3/3 4/4/4 
s 4
f 5/5/5 6/6/6 7/7/7 8/8/8 
s 2
f 9/9/9 10/10/10 11/11/11 12/12/12 
s 4
f 13/13/13 14/14/14 15/15/15 16/16/16 
s 1
f 17/4/17 18/17/18 19/18/19 20/19/20 
f 21/1/21 22/20/22 23/21/23 24/22/24 
f 1/1/1 25/20/25 26/21/26 27/22/27 
f 4/4/4 28/17/28 29/18/29 30/19/30 
s 4
f 5/5/5 31/23/31 29/18/29 28/24/28 
f 8/8/8 24/25/24 23/26/23 32/27/32 
s 2
f 9/9/9 30/20/30 29/21/29 31/28/31 
f 10/10/10 32/29/32 23/30/23 22/31/22 
f 11/11/11 20/32/20 19/26/19 33/27/33 
f 12/12/12 34/23/34 26/18/26 25/19/25 
s 4
f 13/13/13 27/33/27 26/21/26 34/28/34 
f 14/14/14 33/29/33 19/30/19 18/34/18 
s 1
f 17/4/17 35/3/35 36/35/36 18/17/18 
f 21/1/21 17/4/17 20/19/20 22/20/22 
f 4/4/4 3/3/3 37/35/37 28/17/28 
f 1/1/1 4/4/4 30/19/30 25/20/25 
s 4
f 8/8/8 7/7/7 38/36/38 24/25/24 
f 5/5/5 8/8/8 32/27/32 31/23/31 
s 2
f 10/10/10 9/9/9 31/28/31 32/29/32 
f 11/11/11 10/10/10 22/31/22 20/32/20 
f 12/12/12 11/11/11 33/27/33 34/23/34 
f 9/9/9 12/12/12 25/19/25 30/20/30 
s 4
f 14/14/14 13/13/13 34/28/34 33/29/33 
f 13/13/13 16/16/16 39/37/39 27/33/27 
s 1
f 2/2/2 40/38/40 41/39/41 3/3/3 
s 4
f 6/6/6 42/40/42 43/41/43 7/7/7 
f 15/15/15 44/41/44 45/40/45 16/16/16 
s 1
f 35/3/35 46/39/46 47/42/47 36/35/36 
f 3/3/3 41/39/41 48/42/48 37/35/37 
s 4
f 7/7/7 43/41/43 49/43/49 38/36/38 
f 16/16/16 45/40/45 50/44/50 39/37/39 
s 1
f 35/3/35 17/4/17 21/1/21 51/2/51 
f 51/2/51 21/1/21 24/22/24 38/45/38 
f 2/2/2 1/1/1 27/22/27 39/45/39 
s 4
f 6/6/6 5/5/5 28/24/28 37/46/37 
f 15/15/15 14/14/14 18/34/18 36/47/36 
s 1
f 46/39/46 35/3/35 51/2/51 52/38/52 
f 52/38/52 51/2/51 38/45/38 49/48/49 
f 40/38/40 2/2/2 39/45/39 50/48/50 
s 4
f 42/40/42 6/6/6 37/46/37 48/44/48 
f 44/41/44 15/15/15 36/47/36 47/43/47 
s 1
f 53/1/53 54/4/54 55/3/55 56/2/56 
s 4
f 57/5/57 58/8/58 59/7/59 60/6/60 
s 2
f 61/9/61 62/12/62 63/11/63 64/10/64 
s 4
f 65/13/65 66/16/66 67/15/67 68/14/68 
s 1
f 69/4/69 70/19/70 71/18/71 72/17/72 
f 73/1/73 74/22/74 75/21/75 76/20/76 
f 53/1/53 77/22/77 78/21/78 79/20/79 
f 54/4/54 80/19/80 81/18/81 82/17/82 
s 4
f 57/5/57 82/24/82 81/18/81 83/23/83 
f 58/8/58 84/27/84 75/26/75 74/25/74 
s 2
f 61/9/61 83/28/83 81/21/81 80/20/80 
f 64/10/64 76/31/76 75/30/75 84/29/84 
f 63/11/63 85/27/85 71/26/71 70/32/70 
f 62/12/62 79/19/79 78/18/78 86/23/86 
s 4
f 65/13/65 86/28/86 78/21/78 77/33/77 
f 68/14/68 72/34/72 71/30/71 85/29/85 
s 1
f 69/4/69 72/17/72 87/35/87 88/3/88 
f 73/1/73 76/20/76 70/19/70 69/4/69 
f 54/4/54 82/17/82 89/35/89 55/3/55 
f 53/1/53 79/20/79 80/19/80 54/4/54 
s 4
f 58/8/58 74/25/74 90/36/90 59/7/59 
f 57/5/57 83/23/83 84/27/84 58/8/58 
s 2
f 64/10/64 84/29/84 83/28/83 61/9/61 
f 63/11/63 70/32/70 76/31/76 64/10/64 
f 62/12/62 86/23/86 85/27/85 63/11/63 
f 61/9/61 80/20/80 79/19/79 62/12/62 
s 4
f 68/14/68 85/29/85 86/28/86 65/13/65 
f 65/13/65 77/33/77 91/37/91 66/16/66 
s 1
f 56/2/56 55/3/55 41/39/41 40/38/40 
s 4
f 60/6/60 59/7/59 43/41/43 42/40/42 
f 67/15/67 66/16/66 45/40/45 44/41/44 
s 1
f 88/3/88 87/35/87 47/42/47 46/39/46 
f 55/3/55 89/35/89 48/42/48 41/39/41 
s 4
f 59/7/59 90/36/90 49/43/49 43/41/43 
f 66/16/66 91/37/91 50/44/50 45/40/45 
s 1
f 88/3/88 92/2/92 73/1/73 69/4/69 
f 92/2/92 90/45/90 74/22/74 73/1/73 
f 56/2/56 91/45/91 77/22/77 53/1/53 
s 4
f 60/6/60 89/46/89 82/24/82 57/5/57 
f 67/15/67 87/47/87 72/34/72 68/14/68 
s 1
f 46/39/46 52/38/52 92/2/92 88/3/88 
f 52/38/52 49/48/49 90/45/90 92/2/92 
f 40/38/40 50/48/50 91/45/91 56/2/56 
s 4
f 42/40/42 48/44/48 89/46/89 60/6/60 
f 44/41/44 47/43/47 87/47/87 67/15/67 
# 90 polygons

