# Blender 4.0.2
# www.blender.org
mtllib I_Pipe.mtl
o Elbow_Joint.002
v 0.000000 -3.000000 -1.001299
v 0.195090 -3.000000 -0.982084
v 0.382683 -3.000000 -0.925178
v 0.555570 -3.000000 -0.832768
v 0.707107 -3.000000 -0.708405
v 0.831470 -3.000000 -0.556869
v 0.923880 -3.000000 -0.383982
v 0.980785 -3.000000 -0.196389
v 1.000000 -3.000000 -0.001299
v 0.980785 -3.000000 0.193792
v 0.923880 -3.000000 0.381385
v 0.831470 -3.000000 0.554272
v 0.707107 -3.000000 0.705808
v 0.555570 -3.000000 0.830171
v 0.382683 -3.000000 0.922581
v 0.195090 -3.000000 0.979487
v 0.000000 -3.000000 0.998701
v -0.195090 -3.000000 0.979487
v -0.382683 -3.000000 0.922581
v -0.555570 -3.000000 0.830171
v -0.707107 -3.000000 0.705808
v -0.831470 -3.000000 0.554272
v -0.923880 -3.000000 0.381385
v -0.980785 -3.000000 0.193792
v -1.000000 -3.000000 -0.001299
v -0.980785 -3.000000 -0.196389
v -0.923880 -3.000000 -0.383982
v -0.831470 -3.000000 -0.556869
v -0.707107 -3.000000 -0.708405
v -0.555570 -3.000000 -0.832768
v -0.382683 -3.000000 -0.925178
v -0.195090 -3.000000 -0.982084
v 0.000000 3.488467 -1.001299
v 0.195090 3.488467 -0.982084
v 0.382683 3.488467 -0.925178
v 0.555570 3.488467 -0.832768
v 0.707107 3.488467 -0.708405
v 0.831470 3.488467 -0.556869
v 0.923880 3.488467 -0.383982
v 0.980785 3.488467 -0.196389
v 1.000000 3.488467 -0.001299
v 0.980785 3.488467 0.193792
v 0.923880 3.488467 0.381385
v 0.831470 3.488467 0.554272
v 0.707107 3.488467 0.705808
v 0.555570 3.488467 0.830171
v 0.382683 3.488467 0.922581
v 0.195090 3.488467 0.979487
v 0.000000 3.488467 0.998701
v -0.195090 3.488467 0.979487
v -0.382683 3.488467 0.922581
v -0.555570 3.488467 0.830171
v -0.707107 3.488467 0.705808
v -0.831470 3.488467 0.554272
v -0.923880 3.488467 0.381385
v -0.980785 3.488467 0.193792
v -1.000000 3.488467 -0.001299
v -0.980785 3.488467 -0.196389
v -0.923880 3.488467 -0.383982
v -0.831470 3.488467 -0.556869
v -0.707107 3.488467 -0.708405
v -0.555570 3.488467 -0.832768
v -0.195090 3.488467 -0.982084
v -0.382683 3.488467 -0.925178
vn -0.7730 -0.0000 -0.6344
vn -0.2903 -0.0000 -0.9569
vn -0.9569 -0.0000 -0.2903
vn -0.6344 -0.0000 -0.7730
vn -0.9952 -0.0000 0.0980
vn -0.8819 -0.0000 -0.4714
vn -0.8819 -0.0000 0.4714
vn 0.2903 -0.0000 0.9569
vn -0.9952 -0.0000 -0.0980
vn -0.6344 -0.0000 0.7730
vn 0.4714 -0.0000 0.8819
vn -0.9569 -0.0000 0.2903
vn -0.2903 -0.0000 0.9569
vn 0.7730 -0.0000 0.6344
vn -0.7730 -0.0000 0.6344
vn 0.0980 -0.0000 0.9952
vn 0.9569 -0.0000 0.2903
vn -0.4714 -0.0000 0.8819
vn 0.6344 -0.0000 0.7730
vn 0.9952 -0.0000 -0.0980
vn 0.8819 -0.0000 0.4714
vn 0.8819 -0.0000 -0.4714
vn 0.9952 -0.0000 0.0980
vn 0.6344 -0.0000 -0.7730
vn 0.9569 -0.0000 -0.2903
vn 0.2903 -0.0000 -0.9569
vn 0.7730 -0.0000 -0.6344
vn -0.0980 -0.0000 -0.9952
vn 0.4714 -0.0000 -0.8819
vn 0.0980 -0.0000 -0.9952
vn -0.4714 -0.0000 -0.8819
vn -0.0000 -1.0000 -0.0000
vn -0.0000 1.0000 -0.0000
vn -0.0980 -0.0000 0.9952
vt 0.535702 0.105499
vt 0.535702 0.679700
vt 0.518354 0.679700
vt 0.518354 0.105499
vt 0.587746 0.679700
vt 0.570398 0.679700
vt 0.570398 0.105499
vt 0.587746 0.105499
vt 0.483657 0.105499
vt 0.501005 0.105499
vt 0.501005 0.679700
vt 0.483657 0.679700
vt 0.553050 0.105499
vt 0.553050 0.679700
vt 0.448961 0.105499
vt 0.466309 0.105499
vt 0.466309 0.679700
vt 0.448961 0.679700
vt 0.414265 0.105499
vt 0.431613 0.105499
vt 0.431613 0.679700
vt 0.414265 0.679700
vt 0.292827 0.105499
vt 0.310175 0.105499
vt 0.310175 0.679700
vt 0.292827 0.679700
vt 0.379568 0.105499
vt 0.396916 0.105499
vt 0.396916 0.679700
vt 0.379568 0.679700
vt 0.275479 0.105499
vt 0.275479 0.679700
vt 0.344872 0.105499
vt 0.362220 0.105499
vt 0.362220 0.679700
vt 0.344872 0.679700
vt 0.240783 0.105499
vt 0.258131 0.105499
vt 0.258131 0.679700
vt 0.240783 0.679700
vt 0.327524 0.105499
vt 0.327524 0.679700
vt 0.206086 0.105499
vt 0.223434 0.105499
vt 0.223434 0.679700
vt 0.206086 0.679700
vt 0.171390 0.105499
vt 0.188738 0.105499
vt 0.188738 0.679700
vt 0.171390 0.679700
vt 0.136693 0.105499
vt 0.154042 0.105499
vt 0.154042 0.679700
vt 0.136693 0.679700
vt 0.101997 0.105499
vt 0.119345 0.105499
vt 0.119345 0.679700
vt 0.101997 0.679700
vt 0.622443 0.105499
vt 0.639791 0.105499
vt 0.639791 0.679700
vt 0.622443 0.679700
vt 0.605095 0.105499
vt 0.605095 0.679700
vt 0.657139 0.105499
vt 0.657139 0.679700
vt 0.875942 0.502869
vt 0.852675 0.507497
vt 0.828952 0.507497
vt 0.805684 0.502869
vt 0.783767 0.493791
vt 0.764042 0.480611
vt 0.747268 0.463836
vt 0.734088 0.444111
vt 0.725009 0.422194
vt 0.720381 0.398927
vt 0.720381 0.375204
vt 0.725009 0.351937
vt 0.734088 0.330020
vt 0.747268 0.310295
vt 0.764042 0.293520
vt 0.783767 0.280340
vt 0.805685 0.271262
vt 0.828952 0.266634
vt 0.852675 0.266634
vt 0.875942 0.271262
vt 0.897859 0.280340
vt 0.917584 0.293520
vt 0.934359 0.310295
vt 0.947538 0.330020
vt 0.956617 0.351937
vt 0.961245 0.375204
vt 0.961245 0.398927
vt 0.956617 0.422194
vt 0.947538 0.444111
vt 0.934359 0.463836
vt 0.917584 0.480611
vt 0.897859 0.493791
vt 0.788418 0.809064
vt 0.768693 0.795884
vt 0.751918 0.779110
vt 0.738738 0.759385
vt 0.729660 0.737467
vt 0.725032 0.714200
vt 0.725032 0.690477
vt 0.729660 0.667210
vt 0.738738 0.645293
vt 0.751918 0.625568
vt 0.768693 0.608793
vt 0.788418 0.595613
vt 0.810335 0.586535
vt 0.833602 0.581907
vt 0.857325 0.581907
vt 0.880592 0.586535
vt 0.902510 0.595613
vt 0.922235 0.608793
vt 0.939009 0.625568
vt 0.952189 0.645293
vt 0.961267 0.667210
vt 0.965896 0.690477
vt 0.965896 0.714200
vt 0.961267 0.737467
vt 0.952189 0.759385
vt 0.939009 0.779110
vt 0.922235 0.795884
vt 0.902510 0.809064
vt 0.880592 0.818142
vt 0.857325 0.822771
vt 0.833602 0.822771
vt 0.810335 0.818142
s 0
f 13/1/1 45/2/1 44/3/1 12/4/1
f 48/5/2 47/6/2 15/7/2 16/8/2
f 10/9/3 11/10/3 43/11/3 42/12/3
f 13/1/4 14/13/4 46/14/4 45/2/4
f 8/15/5 9/16/5 41/17/5 40/18/5
f 11/10/6 12/4/6 44/3/6 43/11/6
f 6/19/7 7/20/7 39/21/7 38/22/7
f 31/23/8 32/24/8 63/25/8 64/26/8
f 9/16/9 10/9/9 42/12/9 41/17/9
f 4/27/10 5/28/10 37/29/10 36/30/10
f 30/31/11 31/23/11 64/26/11 62/32/11
f 7/20/12 8/15/12 40/18/12 39/21/12
f 2/33/13 3/34/13 35/35/13 34/36/13
f 28/37/14 29/38/14 61/39/14 60/40/14
f 5/28/15 6/19/15 38/22/15 37/29/15
f 32/24/16 1/41/16 33/42/16 63/25/16
f 26/43/17 27/44/17 59/45/17 58/46/17
f 3/34/18 4/27/18 36/30/18 35/35/18
f 29/38/19 30/31/19 62/32/19 61/39/19
f 24/47/20 25/48/20 57/49/20 56/50/20
f 27/44/21 28/37/21 60/40/21 59/45/21
f 22/51/22 23/52/22 55/53/22 54/54/22
f 25/48/23 26/43/23 58/46/23 57/49/23
f 20/55/24 21/56/24 53/57/24 52/58/24
f 23/52/25 24/47/25 56/50/25 55/53/25
f 18/59/26 19/60/26 51/61/26 50/62/26
f 21/56/27 22/51/27 54/54/27 53/57/27
f 16/8/28 17/63/28 49/64/28 48/5/28
f 19/60/29 20/65/29 52/66/29 51/61/29
f 17/63/30 18/59/30 50/62/30 49/64/30
f 14/13/31 15/7/31 47/6/31 46/14/31
f 45/67/32 46/68/32 47/69/32 48/70/32 49/71/32 50/72/32 51/73/32 52/74/32 53/75/32 54/76/32 55/77/32 56/78/32 57/79/32 58/80/32 59/81/32 60/82/32 61/83/32 62/84/32 64/85/32 63/86/32 33/87/32 34/88/32 35/89/32 36/90/32 37/91/32 38/92/32 39/93/32 40/94/32 41/95/32 42/96/32 43/97/32 44/98/32
f 17/99/33 16/100/33 15/101/33 14/102/33 13/103/33 12/104/33 11/105/33 10/106/33 9/107/33 8/108/33 7/109/33 6/110/33 5/111/33 4/112/33 3/113/33 2/114/33 1/115/33 32/116/33 31/117/33 30/118/33 29/119/33 28/120/33 27/121/33 26/122/33 25/123/33 24/124/33 23/125/33 22/126/33 21/127/33 20/128/33 19/129/33 18/130/33
f 1/41/34 2/33/34 34/36/34 33/42/34
