# 3ds Max Wavefront OBJ Exporter v0.99 - (c)2007 guruware
# File Created: 22.02.2025 14:04:44

mtllib CoralArch_Model.mtl

#
# object CoralReef
#

v  -50.0732 0.5559 2.9252
v  -51.8497 -0.7073 -11.4306
v  -37.3478 0.5559 -11.2526
v  -37.3478 0.5559 8.1032
v  -25.8755 60.4175 -6.0964
v  -22.8301 62.9403 -6.0964
v  -24.0417 63.5903 -11.8636
v  -27.2050 60.9699 -11.8636
v  -38.0371 11.8970 7.4337
v  -48.4507 11.8970 3.1964
v  -19.5156 0.5559 2.9252
v  -17.5554 1.8842 -11.3663
v  -25.7311 12.1488 -8.4855
v  -28.4679 11.8970 3.1964
v  -37.3478 0.5559 -31.9321
v  -38.0371 11.8970 -25.3292
v  -28.4679 11.8970 -21.0919
v  -19.5156 0.5559 -26.7544
v  -50.0493 11.0163 -8.5546
v  -48.4507 11.8970 -21.0919
v  -50.0732 0.5559 -26.7544
v  -38.2200 28.0738 2.0933
v  -47.1988 28.0738 -1.5602
v  -25.0250 26.3592 -11.5607
v  -29.9691 28.0738 -1.5602
v  -38.2200 28.0738 -26.1560
v  -29.9691 28.0738 -22.5024
v  -49.3536 27.3745 -11.7078
v  -47.1988 28.0738 -22.5024
v  -33.5005 35.9020 -1.6046
v  -40.9236 36.9400 -4.3015
v  -22.1618 32.3422 -11.6396
v  -26.6792 34.9483 -4.3015
v  -33.5005 35.9020 -22.4583
v  -26.6792 34.9483 -19.7611
v  -42.8353 36.5838 -11.8020
v  -40.9236 36.9400 -19.7611
v  -23.8089 42.5377 -7.5053
v  -30.8327 43.3289 -5.9261
v  -23.8089 42.5377 -16.5574
v  -19.6639 38.9473 -11.7319
v  -38.4763 44.1898 -16.5574
v  -30.8327 43.3289 -18.1366
v  -38.4763 44.1898 -7.5053
v  -40.2936 44.1143 -11.9120
v  -25.0406 51.5477 -4.0257
v  -33.7256 53.8174 -6.0964
v  -15.1267 44.1898 -11.6912
v  -18.5956 48.5616 -6.0964
v  -25.0406 51.5477 -20.0370
v  -18.5956 48.5616 -17.9662
v  -35.3591 54.1143 -11.8636
v  -33.7256 53.8174 -17.9662
v  -18.7824 57.3869 -4.0257
v  -24.4391 57.4978 -4.0257
v  -30.5950 57.6185 -17.9662
v  -24.4391 57.4978 -20.0370
v  -30.5950 57.6185 -6.0964
v  -32.1072 58.0626 -11.8636
v  -20.0317 65.2584 -17.9662
v  -21.1350 65.9982 -11.8636
v  -2.0694 68.7446 -11.7364
v  -1.6763 67.9025 -21.6705
v  -20.0317 65.2584 -6.0964
v  -3.2639 62.3730 0.9711
v  -1.6763 67.9025 -2.3921
v  -1.7097 48.8716 -11.5846
v  -3.1791 53.9410 -2.3921
v  -18.7824 57.3869 -20.0370
v  -3.2639 62.3730 -25.0337
v  -3.1791 53.9410 -21.6705
v  6.5468 72.0338 -2.5554
v  6.4719 73.0358 -11.7421
v  9.6204 54.3058 -4.8166
v  9.6204 66.8408 0.7357
v  9.6204 54.1504 -19.2460
v  9.4296 49.1236 -11.6545
v  6.5468 72.0338 -21.5072
v  9.6204 61.5955 -24.7986
v  -25.8755 60.4175 -17.9662
v  -22.8301 62.9403 -17.9662
v  62.3231 1.0981 11.8132
v  45.6500 1.0981 18.4682
v  45.2718 0.8450 -5.9527
v  63.9250 -0.7998 -5.9962
v  45.1163 60.4175 -6.0964
v  46.5343 60.9699 -11.8636
v  43.3711 63.5903 -11.8636
v  42.0710 62.9403 -6.0964
v  59.2298 12.4767 8.3722
v  45.7879 12.4767 13.8416
v  33.4359 12.4767 8.3722
v  30.8513 12.7398 -7.2319
v  27.7529 2.7704 -7.1177
v  30.3287 1.0981 11.8132
v  33.4359 12.4767 -22.9791
v  45.7879 12.4767 -28.4487
v  44.8677 0.5747 -32.0439
v  30.3287 1.0981 -26.3327
v  61.5408 0.5747 -25.3891
v  59.2298 12.4767 -22.9791
v  60.9882 11.3584 -6.6395
v  49.8525 19.4339 3.1525
v  40.8737 19.4339 6.8058
v  32.6227 19.4339 3.1525
v  29.4484 18.8402 -7.4592
v  32.6227 19.4339 -17.7897
v  40.8737 19.4339 -21.4433
v  49.8525 19.4339 -17.7897
v  51.4536 18.4001 -6.8128
v  52.3962 26.5422 -2.4700
v  44.3740 26.2149 -0.1740
v  37.0022 25.9139 -2.4700
v  33.2600 24.4797 -9.0780
v  37.0022 25.9139 -15.6300
v  44.3740 26.2149 -17.9259
v  52.3962 26.5422 -15.6300
v  54.0958 25.7836 -8.7448
v  37.0779 34.2610 -5.3933
v  42.9355 35.0799 -3.0774
v  41.8122 40.8823 -5.3236
v  35.9273 40.0130 -7.0586
v  37.0779 34.2610 -18.6693
v  33.3259 31.7440 -11.6711
v  32.3245 36.7501 -11.7189
v  35.9273 40.0130 -17.0041
v  49.3103 35.9712 -18.6693
v  42.9355 35.0799 -20.9855
v  41.8122 40.8823 -18.7391
v  48.2166 41.8282 -17.0041
v  50.8904 35.5775 -11.8396
v  49.7544 41.6613 -11.8967
v  48.2166 41.8282 -7.0586
v  49.3103 35.9712 -5.3933
v  45.6523 49.6291 -7.3967
v  38.8701 47.8566 -5.7798
v  33.8371 45.5248 -7.3967
v  30.5055 41.5468 -11.7287
v  33.8371 45.5248 -16.6659
v  38.8701 47.8566 -18.2830
v  45.6523 49.6291 -16.6659
v  47.0908 49.7638 -11.9084
v  43.6800 57.4978 -4.0257
v  38.0232 57.3869 -4.0257
v  43.6800 57.4978 -20.0370
v  46.0921 55.6383 -17.9662
v  47.5476 56.0056 -11.8636
v  46.0921 55.6383 -6.0964
v  39.2726 65.2584 -17.9662
v  20.3618 69.3279 -21.6705
v  20.8214 70.2253 -11.7364
v  40.4644 65.9982 -11.8636
v  39.2726 65.2584 -6.0964
v  20.3618 69.3279 -2.3921
v  22.5050 62.3730 0.9711
v  22.4202 53.9410 -2.3921
v  20.5692 48.8716 -11.5846
v  22.4202 53.9410 -21.6705
v  22.5050 62.3730 -25.0337
v  38.0232 57.3869 -20.0370
v  42.0710 62.9403 -17.9662
v  45.1163 60.4175 -17.9662
# 162 vertices

vn -0.6798 -0.5312 0.5057
vn -0.7367 -0.6761 -0.0078
vn 0.0769 -0.9970 -0.0000
vn -0.0305 -0.6188 0.7850
vn -0.4598 0.6442 -0.6113
vn -0.5249 0.6337 0.5682
vn -0.6379 0.7701 0.0058
vn -0.5705 0.8212 0.0056
vn 0.0076 0.1822 0.9832
vn -0.7556 0.1648 0.6340
vn 0.7549 -0.4314 0.4941
vn 0.9414 -0.3367 -0.0201
vn 0.9475 0.3173 0.0400
vn 0.6510 0.3685 0.6636
vn -0.0339 -0.4343 -0.9001
vn 0.0096 0.2541 -0.9671
vn 0.7030 0.4169 -0.5762
vn 0.7295 -0.3601 -0.5815
vn -0.9949 0.0989 0.0211
vn -0.8223 0.1962 -0.5342
vn -0.6760 -0.4096 -0.6126
vn -0.0306 0.3844 0.9227
vn -0.7357 0.4080 0.5406
vn 0.9693 -0.2456 -0.0137
vn 0.6541 0.1432 0.7427
vn -0.0343 0.2031 -0.9786
vn 0.6431 0.0089 -0.7657
vn -0.9537 0.3006 -0.0090
vn -0.7391 0.2977 -0.6042
vn 0.1058 0.4124 0.9049
vn -0.5781 0.5359 0.6153
vn 0.9187 -0.3943 0.0229
vn 0.6421 0.0394 0.7656
vn 0.1058 0.4124 -0.9049
vn 0.6576 0.0274 -0.7529
vn -0.8847 0.4661 0.0059
vn -0.5813 0.5367 -0.6116
vn 0.3909 -0.1950 0.8995
vn 0.0073 0.1694 0.9855
vn 0.4161 -0.2106 -0.8846
vn 0.8674 -0.4967 0.0299
vn -0.6313 0.3783 -0.6770
vn 0.0073 0.1694 -0.9855
vn -0.6248 0.3764 0.6841
vn -0.9266 0.3760 0.0061
vn 0.0334 -0.1057 0.9938
vn -0.6128 0.3386 0.7140
vn 0.5530 -0.8326 0.0318
vn 0.1581 -0.4601 0.8737
vn 0.0334 -0.1057 -0.9938
vn 0.1720 -0.4772 -0.8618
vn -0.8439 0.5365 0.0072
vn -0.6168 0.3412 -0.7093
vn -0.1577 -0.0269 0.9871
vn -0.1585 0.2036 0.9661
vn -0.5263 0.6020 -0.6005
vn -0.1585 0.2036 -0.9661
vn -0.5236 0.5996 0.6053
vn -0.6620 0.7495 0.0060
vn -0.3586 0.7110 -0.6049
vn -0.4229 0.9061 0.0049
vn -0.2984 0.9544 0.0031
vn -0.3080 0.7955 -0.5218
vn -0.3571 0.7080 0.6093
vn -0.1760 0.0986 0.9794
vn -0.3077 0.7941 0.5241
vn 0.1730 -0.9847 0.0227
vn 0.0868 -0.6107 0.7871
vn -0.1577 -0.0269 -0.9871
vn -0.1803 0.1471 -0.9726
vn 0.0859 -0.6230 -0.7775
vn -0.1299 0.8541 0.5036
vn -0.1344 0.9909 0.0031
vn -0.0012 -0.6327 0.7744
vn 0.0459 0.1913 0.9805
vn -0.0010 -0.7361 -0.6769
vn 0.0003 -0.9996 0.0298
vn -0.1129 0.8059 -0.5812
vn -0.0032 -0.1856 -0.9826
vn -0.4576 0.6415 0.6157
vn -0.5270 0.6362 -0.5635
vn 0.7125 -0.4096 0.5697
vn -0.0142 -0.4769 0.8788
vn -0.0989 -0.9950 0.0118
vn 0.7582 -0.6520 0.0012
vn 0.5814 0.3565 0.7314
vn 0.8618 0.5072 0.0064
vn 0.6379 0.7701 0.0060
vn 0.5232 0.6316 0.5721
vn 0.6641 0.5936 0.4545
vn 0.0166 0.5425 0.8399
vn -0.6969 0.3935 0.5996
vn -0.9994 0.0359 0.0021
vn -0.8719 -0.4896 0.0035
vn -0.6848 -0.5084 0.5221
vn -0.6978 0.3902 -0.6007
vn 0.0269 0.4991 -0.8661
vn -0.0174 -0.5286 -0.8487
vn -0.6885 -0.4890 -0.5355
vn 0.6858 -0.4719 -0.5540
vn 0.6873 0.5460 -0.4790
vn 0.8472 0.5312 0.0007
vn 0.5375 0.6634 0.5205
vn -0.0980 0.6896 0.7176
vn -0.7051 0.5029 0.4999
vn -0.9869 0.1612 0.0061
vn -0.7414 0.4327 -0.5129
vn -0.1129 0.5916 -0.7983
vn 0.6257 0.5231 -0.5788
vn 0.9373 0.3479 0.0198
vn 0.7664 0.2666 0.5844
vn 0.0094 0.5465 0.8374
vn -0.5607 0.5436 0.6246
vn -0.9322 0.3617 -0.0144
vn -0.6292 0.1620 -0.7601
vn 0.0437 0.0663 -0.9968
vn 0.8071 -0.0019 -0.5904
vn 0.9995 -0.0329 0.0028
vn -0.6544 0.1707 0.7366
vn -0.0572 0.3249 0.9440
vn -0.0265 0.2188 0.9754
vn -0.5387 -0.0252 0.8421
vn -0.6039 -0.0890 -0.7920
vn -0.9930 -0.1010 -0.0606
vn -0.9653 -0.2593 0.0291
vn -0.5625 -0.0337 -0.8261
vn 0.6862 0.1530 -0.7111
vn -0.0124 0.0147 -0.9998
vn -0.0265 0.2188 -0.9754
vn 0.6854 0.2873 -0.6691
vn 0.9689 0.2467 -0.0164
vn 0.9697 0.2443 0.0063
vn 0.6800 0.2870 0.6747
vn 0.6782 0.3664 0.6370
vn 0.6720 0.0028 0.7406
vn -0.0996 -0.0383 0.9943
vn -0.2509 -0.3318 0.9094
vn -0.8181 -0.5741 0.0344
vn -0.2744 -0.3481 -0.8964
vn -0.0996 -0.0383 -0.9943
vn 0.6777 0.0040 -0.7353
vn 0.9924 0.1231 0.0070
vn 0.4232 0.1275 0.8970
vn 0.1378 -0.0696 0.9880
vn 0.4232 0.1275 -0.8970
vn 0.8336 -0.0372 -0.5511
vn 0.9977 0.0679 0.0070
vn 0.8301 -0.0380 0.5564
vn 0.3815 0.6916 -0.6134
vn 0.2001 0.8002 -0.5653
vn 0.2015 0.9795 0.0033
vn 0.4527 0.8917 0.0051
vn 0.3799 0.6884 0.6179
vn 0.1999 0.7986 0.5677
vn 0.1679 0.0605 0.9839
vn -0.0945 -0.5772 0.8111
vn -0.3207 -0.9469 0.0252
vn -0.0952 -0.5883 -0.8030
vn 0.1799 0.1036 -0.9782
vn 0.1378 -0.0696 -0.9880
vn 0.5254 0.6343 -0.5671
vn 0.5858 0.3587 -0.7267
# 162 vertex normals

vt 0.9148 0.4151 0.0000
vt 0.9856 0.4353 0.0000
vt 0.9223 0.5124 0.0000
vt 0.8715 0.4289 0.0000
vt 0.6857 0.1260 0.0000
vt 0.6646 0.1138 0.0000
vt 0.6849 0.0836 0.0000
vt 0.7072 0.0959 0.0000
vt 0.8553 0.3929 0.0000
vt 0.8978 0.3732 0.0000
vt 0.8308 0.4632 0.0000
vt 0.7990 0.5223 0.0000
vt 0.7529 0.4453 0.0000
vt 0.8149 0.4142 0.0000
vt 0.1146 0.8863 0.0000
vt 0.1323 0.8412 0.0000
vt 0.1797 0.8625 0.0000
vt 0.1443 0.9099 0.0000
vt 0.0135 0.8848 0.0000
vt 0.0110 0.8135 0.0000
vt 0.0788 0.8253 0.0000
vt 0.0817 0.8739 0.0000
vt 0.8217 0.3172 0.0000
vt 0.8692 0.2962 0.0000
vt 0.7069 0.3639 0.0000
vt 0.7719 0.3320 0.0000
vt 0.1573 0.7664 0.0000
vt 0.2032 0.7777 0.0000
vt 0.0606 0.7259 0.0000
vt 0.1141 0.7533 0.0000
vt 0.7793 0.2781 0.0000
vt 0.8223 0.2503 0.0000
vt 0.6849 0.3270 0.0000
vt 0.7348 0.2948 0.0000
vt 0.1937 0.7283 0.0000
vt 0.2369 0.7423 0.0000
vt 0.1105 0.6736 0.0000
vt 0.1507 0.7058 0.0000
vt 0.6935 0.2504 0.0000
vt 0.7421 0.2292 0.0000
vt 0.2762 0.6972 0.0000
vt 0.3109 0.7344 0.0000
vt 0.2894 0.7756 0.0000
vt 0.1751 0.6562 0.0000
vt 0.2265 0.6786 0.0000
vt 0.7919 0.2022 0.0000
vt 0.8167 0.1815 0.0000
vt 0.8568 0.2142 0.0000
vt 0.6884 0.1837 0.0000
vt 0.7377 0.1574 0.0000
vt 0.6626 0.2867 0.0000
vt 0.6276 0.2601 0.0000
vt 0.6497 0.2131 0.0000
vt 0.2769 0.6292 0.0000
vt 0.3186 0.6564 0.0000
vt 0.1472 0.6373 0.0000
vt 0.1946 0.5830 0.0000
vt 0.2250 0.6068 0.0000
vt 0.6428 0.1536 0.0000
vt 0.6779 0.1480 0.0000
vt 0.2464 0.5872 0.0000
vt 0.2846 0.5921 0.0000
vt 0.7149 0.1400 0.0000
vt 0.7387 0.1131 0.0000
vt 0.7642 0.1327 0.0000
vt 0.3133 0.5430 0.0000
vt 0.2903 0.5117 0.0000
vt 0.4021 0.4626 0.0000
vt 0.4252 0.5225 0.0000
vt 0.6459 0.1029 0.0000
vt 0.5442 0.1305 0.0000
vt 0.5364 0.0928 0.0000
vt 0.5392 0.2454 0.0000
vt 0.5484 0.1817 0.0000
vt 0.3210 0.5948 0.0000
vt 0.4200 0.5623 0.0000
vt 0.4211 0.6159 0.0000
vt 0.4882 0.0754 0.0000
vt 0.4932 0.0235 0.0000
vt 0.5526 0.0369 0.0000
vt 0.4695 0.1899 0.0000
vt 0.4719 0.1085 0.0000
vt 0.5026 0.6185 0.0000
vt 0.5077 0.6771 0.0000
vt 0.4361 0.6854 0.0000
vt 0.4733 0.5001 0.0000
vt 0.4961 0.5615 0.0000
vt 0.2747 0.5703 0.0000
vt 0.2951 0.5559 0.0000
vt 0.1872 0.9644 0.0000
vt 0.0645 0.9631 0.0000
vt 0.6645 0.0725 0.0000
vt 0.0973 0.4177 0.0000
vt 0.1271 0.4257 0.0000
vt 0.0990 0.5230 0.0000
vt 0.0207 0.4286 0.0000
vt 0.2681 0.1102 0.0000
vt 0.2448 0.0872 0.0000
vt 0.2658 0.0723 0.0000
vt 0.2866 0.1003 0.0000
vt 0.0989 0.3879 0.0000
vt 0.1373 0.3969 0.0000
vt 0.1748 0.4121 0.0000
vt 0.2453 0.4402 0.0000
vt 0.2169 0.4953 0.0000
vt 0.1546 0.4385 0.0000
vt 0.8186 0.8194 0.0000
vt 0.8627 0.7989 0.0000
vt 0.8727 0.8317 0.0000
vt 0.8466 0.8489 0.0000
vt 0.9109 0.8205 0.0000
vt 0.9044 0.7874 0.0000
vt 0.9814 0.7585 0.0000
vt 0.9940 0.8388 0.0000
vt 0.1300 0.3446 0.0000
vt 0.1665 0.3737 0.0000
vt 0.2015 0.3907 0.0000
vt 0.2580 0.4041 0.0000
vt 0.7832 0.8001 0.0000
vt 0.8234 0.7711 0.0000
vt 0.8696 0.7338 0.0000
vt 0.9340 0.6996 0.0000
vt 0.1363 0.2936 0.0000
vt 0.1782 0.3209 0.0000
vt 0.2218 0.3418 0.0000
vt 0.2660 0.3620 0.0000
vt 0.7641 0.7511 0.0000
vt 0.8113 0.7194 0.0000
vt 0.8576 0.6838 0.0000
vt 0.8981 0.6613 0.0000
vt 0.2500 0.2906 0.0000
vt 0.2124 0.2707 0.0000
vt 0.2378 0.2348 0.0000
vt 0.2761 0.2568 0.0000
vt 0.7416 0.6945 0.0000
vt 0.7091 0.7375 0.0000
vt 0.6867 0.7108 0.0000
vt 0.7112 0.6673 0.0000
vt 0.8034 0.6471 0.0000
vt 0.7720 0.6715 0.0000
vt 0.7458 0.6403 0.0000
vt 0.7830 0.6134 0.0000
vt 0.1455 0.2151 0.0000
vt 0.1725 0.1878 0.0000
vt 0.1990 0.2087 0.0000
vt 0.1767 0.2434 0.0000
vt 0.2354 0.1643 0.0000
vt 0.2762 0.1959 0.0000
vt 0.3044 0.2254 0.0000
vt 0.3245 0.2664 0.0000
vt 0.3050 0.2917 0.0000
vt 0.6782 0.6392 0.0000
vt 0.7041 0.6056 0.0000
vt 0.7437 0.5698 0.0000
vt 0.7717 0.5489 0.0000
vt 0.8117 0.5913 0.0000
vt 0.2734 0.1289 0.0000
vt 0.3033 0.1379 0.0000
vt 0.7012 0.5363 0.0000
vt 0.7210 0.5365 0.0000
vt 0.2088 0.1470 0.0000
vt 0.2258 0.1122 0.0000
vt 0.2544 0.1307 0.0000
vt 0.6655 0.4993 0.0000
vt 0.5514 0.5028 0.0000
vt 0.5571 0.4395 0.0000
vt 0.6828 0.4644 0.0000
vt 0.3043 0.0907 0.0000
vt 0.4132 0.0845 0.0000
vt 0.3994 0.1266 0.0000
vt 0.3910 0.1768 0.0000
vt 0.3992 0.2411 0.0000
vt 0.5826 0.5976 0.0000
vt 0.5699 0.5451 0.0000
vt 0.6708 0.5484 0.0000
vt 0.4030 0.0284 0.0000
vt 0.5800 0.6704 0.0000
vt 0.6848 0.5077 0.0000
vt 0.7050 0.5164 0.0000
vt 0.9164 0.9348 0.0000
vt 0.7936 0.9201 0.0000
vt 0.2860 0.0608 0.0000
vt 0.2915 0.3208 0.0000
vt 0.8396 0.6210 0.0000
vt 0.2703 0.5251 0.0000
vt 0.2488 0.5399 0.0000
vt 0.2425 0.9006 0.0000
vt 0.9642 0.3529 0.0000
vt 0.2678 0.8121 0.0000
vt 0.9163 0.2573 0.0000
vt 0.3458 0.7062 0.0000
vt 0.2185 0.5607 0.0000
vt 0.4626 0.4434 0.0000
vt 0.4691 0.2433 0.0000
vt 0.7051 0.4748 0.0000
vt 0.7285 0.4887 0.0000
vt 0.7501 0.8688 0.0000
vt 0.0398 0.3598 0.0000
vt 0.7274 0.8342 0.0000
vt 0.0853 0.3116 0.0000
vt 0.7230 0.7872 0.0000
vt 0.1072 0.2684 0.0000
vt 0.6614 0.6876 0.0000
vt 0.7511 0.5132 0.0000
# 204 texture coords

o CoralReef
g CoralReef
usemtl CoralReef_Model_wire_177099187
s off
f 1/1/1 2/2/2 3/3/3 4/4/4 
f 5/5/5 6/6/6 7/7/7 8/8/8 
f 4/4/4 9/9/9 10/10/10 1/1/1 
f 11/11/11 12/12/12 13/13/13 14/14/14 
f 15/15/15 16/16/16 17/17/17 18/18/18 
f 2/19/2 19/20/19 20/21/20 21/22/21 
f 10/10/10 9/9/9 22/23/22 23/24/23 
f 13/13/13 24/25/24 25/26/25 14/14/14 
f 16/16/16 26/27/26 27/28/27 17/17/17 
f 20/21/20 19/20/19 28/29/28 29/30/29 
f 22/23/22 30/31/30 31/32/31 23/24/23 
f 24/25/24 32/33/32 33/34/33 25/26/25 
f 27/28/27 26/27/26 34/35/34 35/36/35 
f 29/30/29 28/29/28 36/37/36 37/38/37 
f 33/34/33 38/39/38 39/40/39 30/31/30 
f 40/41/40 41/42/41 32/43/32 35/36/35 
f 42/44/42 43/45/43 34/35/34 37/38/37 
f 44/46/44 45/47/45 36/48/36 31/32/31 
f 39/40/39 46/49/46 47/50/47 44/46/44 
f 38/39/38 41/51/41 48/52/48 49/53/49 
f 40/41/40 43/45/43 50/54/50 51/55/51 
f 42/44/42 45/56/45 52/57/52 53/58/53 
f 54/59/54 55/60/55 46/49/46 49/53/49 
f 56/61/56 57/62/57 50/54/50 53/58/53 
f 47/50/47 58/63/58 59/64/59 52/65/52 
f 60/66/60 61/67/61 62/68/62 63/69/63 
f 64/70/64 54/59/54 65/71/65 66/72/66 
f 49/53/49 48/52/48 67/73/67 68/74/68 
f 69/75/69 70/76/70 71/77/71 51/55/51 
f 72/78/72 73/79/73 62/80/62 66/72/66 
f 74/81/74 75/82/75 65/71/65 68/74/68 
f 76/83/76 77/84/77 67/85/67 71/77/71 
f 63/69/63 78/86/78 79/87/79 70/76/70 
f 54/59/54 64/70/64 6/6/6 55/60/55 
f 57/62/57 56/61/56 80/88/80 81/89/81 
f 58/63/58 5/5/5 8/8/8 59/64/59 
f 54/59/54 49/53/49 68/74/68 65/71/65 
f 60/66/60 63/69/63 70/76/70 69/75/69 
f 18/18/18 12/90/12 3/91/3 15/15/15 
f 6/6/6 64/70/64 61/92/61 7/7/7 
f 4/4/4 11/11/11 14/14/14 9/9/9 
f 21/22/21 20/21/20 16/16/16 15/15/15 
f 14/14/14 25/26/25 22/23/22 9/9/9 
f 16/16/16 20/21/20 29/30/29 26/27/26 
f 25/26/25 33/34/33 30/31/30 22/23/22 
f 26/27/26 29/30/29 37/38/37 34/35/34 
f 44/46/44 31/32/31 30/31/30 39/40/39 
f 43/45/43 40/41/40 35/36/35 34/35/34 
f 38/39/38 49/53/49 46/49/46 39/40/39 
f 43/45/43 42/44/42 53/58/53 50/54/50 
f 58/63/58 47/50/47 46/49/46 55/60/55 
f 69/75/69 51/55/51 50/54/50 57/62/57 
f 55/60/55 6/6/6 5/5/5 58/63/58 
f 81/89/81 60/66/60 69/75/69 57/62/57 
f 66/72/66 65/71/65 75/82/75 72/78/72 
f 71/77/71 70/76/70 79/87/79 76/83/76 
f 82/93/82 83/94/83 84/95/84 85/96/85 
f 86/97/86 87/98/87 88/99/88 89/100/89 
f 82/93/82 90/101/90 91/102/91 83/94/83 
f 92/103/92 93/104/93 94/105/94 95/106/95 
f 96/107/96 97/108/97 98/109/98 99/110/99 
f 100/111/100 101/112/101 102/113/102 85/114/85 
f 103/115/103 104/116/104 91/102/91 90/101/90 
f 105/117/105 106/118/106 93/104/93 92/103/92 
f 96/107/96 107/119/107 108/120/108 97/108/97 
f 109/121/109 110/122/110 102/113/102 101/112/101 
f 103/115/103 111/123/111 112/124/112 104/116/104 
f 113/125/113 114/126/114 106/118/106 105/117/105 
f 115/127/115 116/128/116 108/120/108 107/119/107 
f 109/121/109 117/129/117 118/130/118 110/122/110 
f 119/131/119 120/132/120 121/133/121 122/134/122 
f 123/135/123 124/136/124 125/137/125 126/138/126 
f 127/139/127 128/140/128 129/141/129 130/142/130 
f 131/143/131 132/144/132 133/145/133 134/146/134 
f 135/147/135 136/148/136 121/133/121 133/145/133 
f 122/134/122 137/149/137 138/150/138 125/151/125 
f 126/138/126 139/152/139 140/153/140 129/141/129 
f 130/142/130 141/154/141 142/155/142 132/156/132 
f 136/148/136 143/157/143 144/158/144 137/149/137 
f 141/154/141 140/153/140 145/159/145 146/160/146 
f 135/147/135 142/161/142 147/162/147 148/163/148 
f 149/164/149 150/165/150 151/166/151 152/167/152 
f 153/168/153 154/169/154 155/170/155 144/158/144 
f 137/149/137 156/171/156 157/172/157 138/150/138 
f 158/173/158 159/174/159 160/175/160 139/152/139 
f 151/176/151 73/79/73 72/78/72 154/169/154 
f 155/170/155 75/82/75 74/81/74 156/171/156 
f 157/177/157 77/84/77 76/83/76 158/173/158 
f 150/165/150 159/174/159 79/87/79 78/86/78 
f 144/158/144 143/157/143 89/100/89 153/168/153 
f 145/159/145 161/178/161 162/179/162 146/160/146 
f 147/162/147 87/98/87 86/97/86 148/163/148 
f 144/158/144 155/170/155 156/171/156 137/149/137 
f 159/174/159 150/165/150 149/164/149 160/175/160 
f 84/180/84 94/181/94 99/110/99 98/109/98 
f 89/100/89 88/99/88 152/182/152 153/168/153 
f 91/102/91 92/103/92 95/106/95 83/94/83 
f 97/108/97 101/112/101 100/111/100 98/109/98 
f 104/116/104 105/117/105 92/103/92 91/102/91 
f 97/108/97 108/120/108 109/121/109 101/112/101 
f 104/116/104 112/124/112 113/125/113 105/117/105 
f 116/128/116 117/129/117 109/121/109 108/120/108 
f 121/133/121 120/132/120 134/146/134 133/145/133 
f 129/141/129 128/140/128 123/135/123 126/138/126 
f 136/148/136 137/149/137 122/134/122 121/133/121 
f 129/141/129 140/153/140 141/154/141 130/142/130 
f 143/157/143 136/148/136 135/147/135 148/163/148 
f 140/153/140 139/152/139 160/175/160 145/159/145 
f 143/157/143 148/163/148 86/97/86 89/100/89 
f 161/178/161 145/159/145 160/175/160 149/164/149 
f 75/82/75 155/170/155 154/169/154 72/78/72 
f 79/87/79 159/174/159 158/173/158 76/83/76 
f 134/146/134 120/132/120 112/124/112 111/123/111 
f 119/131/119 124/183/124 114/126/114 113/125/113 
f 123/135/123 128/140/128 116/128/116 115/127/115 
f 117/129/117 127/139/127 131/184/131 118/130/118 
f 120/132/120 119/131/119 113/125/113 112/124/112 
f 116/128/116 128/140/128 127/139/127 117/129/117 
f 21/22/21 15/15/15 3/91/3 2/19/2 
f 7/185/7 81/89/81 80/88/80 8/186/8 
f 12/90/12 18/18/18 17/17/17 13/187/13 
f 1/1/1 10/10/10 19/188/19 2/2/2 
f 17/17/17 27/28/27 24/189/24 13/187/13 
f 19/188/19 10/10/10 23/24/23 28/190/28 
f 24/189/24 27/28/27 35/36/35 32/43/32 
f 23/24/23 31/32/31 36/48/36 28/190/28 
f 41/51/41 38/39/38 33/34/33 32/33/32 
f 42/44/42 37/38/37 36/37/36 45/56/45 
f 40/41/40 51/55/51 48/191/48 41/42/41 
f 44/46/44 47/50/47 52/65/52 45/47/45 
f 59/192/59 56/61/56 53/58/53 52/57/52 
f 64/70/64 66/72/66 62/80/62 61/92/61 
f 51/55/51 71/77/71 67/85/67 48/191/48 
f 78/86/78 63/69/63 62/68/62 73/193/73 
f 74/81/74 68/74/68 67/73/67 77/194/77 
f 8/186/8 80/88/80 56/61/56 59/192/59 
f 11/11/11 4/4/4 3/3/3 12/12/12 
f 61/67/61 60/66/60 81/89/81 7/185/7 
f 84/180/84 98/109/98 100/111/100 85/114/85 
f 162/179/162 161/178/161 88/195/88 87/196/87 
f 96/107/96 99/110/99 94/181/94 93/197/93 
f 90/101/90 82/93/82 85/96/85 102/198/102 
f 107/119/107 96/107/96 93/197/93 106/199/106 
f 103/115/103 90/101/90 102/198/102 110/200/110 
f 114/201/114 115/127/115 107/119/107 106/199/106 
f 111/123/111 103/115/103 110/200/110 118/202/118 
f 119/131/119 122/134/122 125/151/125 124/183/124 
f 131/184/131 127/139/127 130/142/130 132/156/132 
f 138/203/138 139/152/139 126/138/126 125/137/125 
f 142/161/142 135/147/135 133/145/133 132/144/132 
f 141/154/141 146/160/146 147/204/147 142/155/142 
f 151/176/151 154/169/154 153/168/153 152/182/152 
f 157/177/157 158/173/158 139/152/139 138/203/138 
f 150/165/150 78/86/78 73/193/73 151/166/151 
f 157/172/157 156/171/156 74/81/74 77/194/77 
f 147/204/147 146/160/146 162/179/162 87/196/87 
f 84/95/84 83/94/83 95/106/95 94/105/94 
f 161/178/161 149/164/149 152/167/152 88/195/88 
f 124/136/124 123/135/123 115/127/115 114/201/114 
f 134/146/134 111/123/111 118/202/118 131/143/131 
# 160 polygons

