# 3ds Max Wavefront OBJ Exporter v0.99 - (c)2007 guruware
# File Created: 22.02.2025 14:05:23

mtllib CoralArch2_Model.mtl

#
# object CoralReef2
#

v  -67.4123 4.6382 18.8770
v  -72.6808 4.2495 3.4323
v  -47.1331 5.2243 2.8831
v  -47.1331 5.7787 22.2045
v  -43.2611 64.2332 8.2988
v  -36.4832 67.8921 8.2988
v  -40.8855 70.1094 3.1366
v  -47.6635 66.4503 3.1366
v  -47.1331 14.5505 22.2045
v  -67.4123 13.4098 18.8770
v  -31.3902 4.6382 3.4323
v  -31.3902 13.4098 3.4323
v  -35.4610 13.4098 18.8770
v  -35.4610 4.6382 18.8770
v  -47.1331 4.6382 -17.5494
v  -47.1331 13.4098 -17.5494
v  -35.4610 13.4098 -12.9009
v  -35.4610 4.6382 -12.9009
v  -67.4123 4.6382 -12.9009
v  -72.6808 13.0211 3.4323
v  -67.4123 13.4098 -12.9009
v  -48.5361 27.2248 15.2815
v  -60.9981 26.3408 12.7027
v  -37.2928 26.3408 3.2115
v  -41.3634 26.3408 12.7027
v  -48.5361 26.3408 -10.4282
v  -41.3634 26.3408 -6.8255
v  -66.2666 22.7074 3.2115
v  -60.9981 26.3408 -6.8255
v  -45.8309 34.5654 17.5061
v  -60.1135 33.4249 14.1787
v  -33.5975 33.9899 3.3008
v  -37.6102 33.4249 14.1787
v  -45.8309 33.4249 -12.8510
v  -37.6102 33.4249 -8.2025
v  -65.3820 29.7915 3.3008
v  -60.1135 33.4249 -8.2025
v  -42.5805 48.1635 11.2823
v  -50.9840 45.8867 9.0736
v  -30.3641 46.7284 3.0718
v  -32.5675 54.4966 9.0736
v  -42.7120 47.4180 -6.3609
v  -32.5675 54.4966 -3.2749
v  -55.3863 44.8592 3.0718
v  -50.9840 45.8867 -3.2749
v  -39.6884 57.1167 14.0963
v  -49.6193 51.5405 10.7690
v  -39.6884 55.9761 -9.4413
v  -33.9725 58.5289 -6.6411
v  -54.0215 50.5131 3.2055
v  -49.6193 51.5405 -4.7929
v  -21.7076 42.9478 3.0980
v  -21.7076 46.1924 9.3128
v  -21.1195 59.1680 -5.6249
v  -21.7076 46.1924 -3.4743
v  -32.5820 71.2214 -2.3224
v  -36.9844 73.4387 3.1366
v  -19.9330 69.8724 3.0213
v  -20.1635 67.8931 -0.7313
v  -32.5820 71.2214 8.2988
v  -33.9725 59.6696 11.8649
v  -21.1195 59.9522 10.5553
v  -20.1635 67.8931 6.5698
v  -11.8714 39.9261 2.6056
v  -11.9140 43.6564 9.5202
v  -11.3312 49.8062 -6.1576
v  -11.8264 42.6572 -4.7068
v  -10.8077 60.4826 3.1366
v  -11.0383 58.5034 -2.3224
v  -11.4027 50.6254 10.8126
v  -11.0383 58.5034 8.2988
v  1.2505 33.6634 2.5958
v  1.2505 37.5632 8.3269
v  1.2505 41.3908 -7.3888
v  1.2505 36.7320 -3.4647
v  1.4990 54.0430 3.0360
v  1.2505 51.9105 -1.4884
v  1.2505 42.3362 12.1250
v  1.2505 51.9105 7.3146
v  89.3373 4.6451 16.1848
v  72.8970 5.5929 18.9504
v  60.7851 5.2243 2.8831
v  93.3765 3.9657 3.3482
v  87.6019 13.4167 16.1848
v  71.1617 14.3647 18.9504
v  61.0461 13.4167 16.1848
v  58.3303 13.4167 3.3482
v  60.0656 4.6451 3.3482
v  62.7814 4.6451 16.1848
v  61.0461 13.4167 -10.2269
v  71.1617 13.4167 -14.0904
v  72.8970 4.6451 -14.0904
v  62.7814 4.6451 -10.2269
v  89.3373 4.6451 -10.2269
v  87.6019 13.4167 -10.2269
v  91.6412 12.7375 3.3482
v  77.2568 20.3412 15.5862
v  61.5732 21.4819 18.9137
v  57.6200 20.3412 15.5862
v  56.8223 19.3251 3.3403
v  57.6200 20.3412 -9.6100
v  61.5732 20.3412 -14.2585
v  77.2568 20.3412 -9.6100
v  80.9918 21.1561 3.3403
v  63.8081 26.8491 10.2960
v  56.4247 26.0207 12.6458
v  51.8819 24.2099 10.2960
v  49.6604 23.0821 3.1659
v  51.8819 24.2099 -4.3743
v  56.4247 25.2152 -7.6569
v  63.8081 26.8491 -4.3743
v  66.4457 27.4244 3.1659
v  10.4865 32.0697 8.0791
v  10.4865 29.0588 2.6015
v  10.4679 34.9432 -5.2240
v  10.4865 31.3375 -3.1910
v  10.6681 45.3802 3.0222
v  10.4374 43.4009 -1.3023
v  10.4374 43.4009 7.1114
v  10.4679 35.7761 9.8595
v  19.2840 42.8608 3.0921
v  19.0533 40.8814 -2.5392
v  16.9434 28.9606 2.5945
v  16.9434 31.7241 9.0221
v  17.7473 33.8649 -6.7314
v  16.9434 31.0401 -4.2027
v  17.7473 34.6426 10.7345
v  19.0533 40.8814 8.4172
v  27.7555 40.0595 8.3116
v  34.5314 36.5470 7.8228
v  34.7107 38.0873 3.1020
v  27.9881 42.0551 3.0383
v  31.9750 29.4250 -3.6813
v  31.9750 26.8997 3.1522
v  24.0542 28.6772 2.5777
v  24.0542 30.9587 -3.6781
v  27.7555 40.0595 -2.5383
v  34.5314 36.5470 -1.8902
v  32.9488 32.1379 -4.1972
v  25.4641 33.4594 -6.1066
v  31.9750 29.4250 9.6138
v  32.9488 32.7016 9.9220
v  25.4641 34.2726 9.8023
v  24.0542 31.6739 8.4930
v  49.3921 33.2524 7.3878
v  51.6106 34.9441 3.0308
v  40.8456 36.6801 3.1120
v  40.6463 34.9684 7.6936
v  44.1941 26.4138 -2.2049
v  44.9770 24.2898 3.0483
v  39.3944 26.3934 3.1495
v  38.5926 27.7823 -3.0723
v  40.6463 34.9684 -1.7330
v  49.3921 33.2524 -1.5769
v  46.3524 30.7499 -4.3293
v  39.3748 30.5196 -3.7535
v  44.1941 26.4138 8.0158
v  45.5704 31.5355 9.4685
v  39.3919 31.0855 9.4874
v  38.5926 27.7823 9.0327
v  -43.2611 64.2332 -2.3224
v  -36.4832 67.8921 -2.3224
# 162 vertices

vn -0.4941 -0.6202 0.6093
vn -0.7512 -0.6601 0.0066
vn 0.0003 -0.9996 0.0287
vn 0.0354 -0.6335 0.7729
vn -0.3536 0.4645 0.8119
vn -0.4241 0.5713 0.7027
vn -0.5453 0.8381 0.0141
vn -0.7673 0.6412 0.0113
vn 0.0652 0.2527 0.9654
vn -0.6322 0.2700 0.7262
vn 0.7448 -0.6672 0.0049
vn 0.9786 0.2059 0.0074
vn 0.6951 0.2579 0.6711
vn 0.5286 -0.6491 0.5471
vn 0.0582 -0.6550 -0.7534
vn 0.0786 0.2409 -0.9674
vn 0.7234 0.2650 -0.6376
vn 0.5924 -0.6174 -0.5175
vn -0.5365 -0.6014 -0.5920
vn -0.9629 0.2699 0.0089
vn -0.6547 0.2734 -0.7047
vn 0.0344 0.0858 0.9957
vn -0.6282 0.2584 0.7339
vn 0.9999 -0.0122 0.0074
vn 0.6643 0.0938 0.7416
vn 0.0428 0.0971 -0.9944
vn 0.7188 0.0609 -0.6926
vn -0.9101 0.4144 0.0039
vn -0.6580 0.2600 -0.7067
vn 0.0743 0.0645 0.9951
vn -0.6311 0.2877 0.7204
vn 0.9430 -0.3327 0.0110
vn 0.6808 -0.2308 0.6952
vn 0.1092 0.0196 -0.9938
vn 0.7331 -0.2405 -0.6362
vn -0.9559 0.2934 0.0120
vn -0.6615 0.3045 -0.6853
vn -0.1072 0.1223 0.9867
vn -0.5949 0.3252 0.7351
vn 0.5776 -0.8162 0.0118
vn 0.0459 -0.4190 0.9068
vn -0.1315 0.1325 -0.9824
vn 0.0543 -0.5474 -0.8351
vn -0.8984 0.4391 0.0065
vn -0.6266 0.3336 -0.7043
vn -0.0161 0.0918 0.9956
vn -0.6047 0.1195 0.7874
vn 0.0052 0.0701 -0.9975
vn 0.3148 -0.0857 -0.9453
vn -0.9562 0.2921 0.0163
vn -0.6709 0.1680 -0.7222
vn -0.3416 -0.9397 0.0193
vn -0.2964 -0.5461 0.7835
vn 0.1391 0.2365 -0.9616
vn -0.3728 -0.5603 -0.7396
vn 0.0004 0.7312 -0.6821
vn -0.3656 0.9307 0.0122
vn 0.4554 0.8903 0.0086
vn 0.4040 0.6584 -0.6350
vn 0.0122 0.7180 0.6959
vn 0.2550 -0.0235 0.9667
vn 0.1596 0.2309 0.9598
vn 0.3958 0.6399 0.6587
vn -0.3445 -0.9369 0.0598
vn -0.1416 -0.5543 0.8201
vn 0.0099 0.0924 -0.9957
vn -0.2169 -0.5976 -0.7719
vn 0.6293 0.7771 0.0100
vn 0.4348 0.5986 -0.6728
vn -0.0112 0.0514 0.9986
vn 0.3903 0.5571 0.7330
vn -0.3527 -0.9337 0.0616
vn -0.2908 -0.7056 0.6462
vn -0.0708 -0.1033 -0.9921
vn -0.3048 -0.7519 -0.5846
vn 0.5165 0.8562 0.0082
vn 0.4130 0.6577 -0.6300
vn -0.0648 -0.1106 0.9917
vn 0.4051 0.6389 0.6540
vn 0.5047 -0.6083 0.6126
vn -0.0307 -0.6344 0.7724
vn -0.0093 -0.9995 0.0287
vn 0.7367 -0.6761 0.0066
vn 0.6436 0.2677 0.7171
vn -0.0583 0.2258 0.9724
vn -0.7071 0.2607 0.6573
vn -0.9324 0.3614 0.0055
vn -0.7361 -0.6768 0.0040
vn -0.5445 -0.6419 0.5399
vn -0.7327 0.2691 -0.6251
vn -0.0708 0.2143 -0.9742
vn -0.0507 -0.6558 -0.7533
vn -0.6035 -0.6128 -0.5101
vn 0.5472 -0.5896 -0.5941
vn 0.6651 0.2725 -0.6952
vn 0.9754 0.2204 0.0078
vn 0.5190 0.6635 0.5389
vn 0.0151 0.4692 0.8830
vn -0.6989 0.3429 0.6277
vn -0.9768 0.2140 0.0016
vn -0.7313 0.3082 -0.6085
vn 0.0057 0.4676 -0.8839
vn 0.5326 0.6665 -0.5216
vn 0.7535 0.6575 0.0060
vn 0.3340 0.7670 0.5478
vn -0.1825 0.3697 0.9110
vn -0.8668 -0.0519 0.4959
vn -0.7293 -0.6842 -0.0046
vn -0.8777 -0.0685 -0.4743
vn -0.2512 0.3028 -0.9194
vn 0.3444 0.7776 -0.5260
vn 0.5352 0.8447 0.0068
vn -0.3194 -0.6779 0.6621
vn -0.3464 -0.9364 0.0564
vn -0.0258 -0.0429 -0.9987
vn -0.3363 -0.7318 -0.5928
vn 0.5069 0.8619 0.0102
vn 0.3507 0.6750 -0.6492
vn 0.3217 0.6394 0.6983
vn 0.0090 -0.0586 0.9982
vn 0.3407 0.9401 0.0099
vn 0.2342 0.7192 -0.6542
vn -0.2468 -0.9677 0.0523
vn -0.1798 -0.7345 0.6543
vn -0.0213 -0.1357 -0.9905
vn -0.2033 -0.8182 -0.5378
vn 0.0272 -0.1295 0.9912
vn 0.2089 0.6462 0.7340
vn 0.2064 0.6317 0.7473
vn 0.0488 0.7608 0.6471
vn 0.1012 0.9948 0.0088
vn 0.2735 0.9618 0.0073
vn -0.0604 -0.6376 -0.7680
vn -0.0173 -0.9997 0.0164
vn -0.0673 -0.9965 0.0495
vn -0.0131 -0.8431 -0.5375
vn 0.2256 0.7160 -0.6607
vn 0.0600 0.7592 -0.6480
vn 0.0647 0.1405 -0.9880
vn 0.1726 -0.2086 -0.9626
vn -0.1468 -0.5752 0.8047
vn -0.0521 0.2230 0.9734
vn 0.0707 -0.1503 0.9861
vn -0.0596 -0.7101 0.7015
vn 0.1603 0.7781 0.6074
vn 0.3361 0.9418 0.0082
vn -0.0507 0.9987 0.0099
vn -0.0206 0.7393 0.6731
vn -0.6428 -0.6576 -0.3930
vn -0.3958 -0.9183 -0.0021
vn -0.1665 -0.9860 0.0069
vn -0.1767 -0.6609 -0.7294
vn -0.0254 0.7445 -0.6671
vn 0.1623 0.7841 -0.5991
vn -0.2505 0.4311 -0.8668
vn -0.1457 0.1132 -0.9828
vn -0.6630 -0.6367 0.3938
vn -0.2030 0.4985 0.8428
vn -0.1028 0.1541 0.9827
vn -0.1549 -0.6180 0.7708
vn -0.3633 0.4725 -0.8029
vn -0.4363 0.5899 -0.6794
# 162 vertex normals

vt 0.7653 0.8560 0.0000
vt 0.7791 0.9150 0.0000
vt 0.6747 0.8609 0.0000
vt 0.7346 0.8148 0.0000
vt 0.9335 0.6230 0.0000
vt 0.9300 0.5840 0.0000
vt 0.9656 0.5952 0.0000
vt 0.9678 0.6368 0.0000
vt 0.7519 0.7960 0.0000
vt 0.7859 0.8424 0.0000
vt 0.6535 0.7830 0.0000
vt 0.6709 0.7427 0.0000
vt 0.7226 0.7775 0.0000
vt 0.7091 0.7968 0.0000
vt 0.1144 0.3350 0.0000
vt 0.1367 0.3314 0.0000
vt 0.1409 0.3638 0.0000
vt 0.1187 0.3632 0.0000
vt 0.0967 0.2932 0.0000
vt 0.0521 0.2506 0.0000
vt 0.0863 0.2247 0.0000
vt 0.1177 0.2822 0.0000
vt 0.7927 0.7574 0.0000
vt 0.8304 0.8021 0.0000
vt 0.7242 0.6973 0.0000
vt 0.7650 0.7309 0.0000
vt 0.1859 0.3171 0.0000
vt 0.1983 0.3516 0.0000
vt 0.1436 0.2157 0.0000
vt 0.1712 0.2639 0.0000
vt 0.8135 0.7270 0.0000
vt 0.8465 0.7761 0.0000
vt 0.7478 0.6596 0.0000
vt 0.7877 0.6990 0.0000
vt 0.2190 0.3147 0.0000
vt 0.2337 0.3479 0.0000
vt 0.1765 0.2111 0.0000
vt 0.1992 0.2629 0.0000
vt 0.8589 0.6678 0.0000
vt 0.8846 0.7105 0.0000
vt 0.7912 0.6069 0.0000
vt 0.8485 0.6003 0.0000
vt 0.2886 0.3055 0.0000
vt 0.3408 0.3462 0.0000
vt 0.2601 0.2254 0.0000
vt 0.2700 0.2625 0.0000
vt 0.8870 0.6274 0.0000
vt 0.8975 0.6821 0.0000
vt 0.3329 0.3029 0.0000
vt 0.3560 0.3214 0.0000
vt 0.2873 0.2244 0.0000
vt 0.2984 0.2656 0.0000
vt 0.7581 0.5693 0.0000
vt 0.7899 0.5512 0.0000
vt 0.4020 0.3707 0.0000
vt 0.3549 0.4158 0.0000
vt 0.4131 0.2949 0.0000
vt 0.4228 0.2629 0.0000
vt 0.4604 0.3332 0.0000
vt 0.4421 0.3427 0.0000
vt 0.9318 0.5600 0.0000
vt 0.8830 0.5959 0.0000
vt 0.8591 0.5285 0.0000
vt 0.9013 0.5072 0.0000
vt 0.7233 0.5270 0.0000
vt 0.7600 0.5066 0.0000
vt 0.4059 0.4386 0.0000
vt 0.3781 0.4619 0.0000
vt 0.4692 0.3969 0.0000
vt 0.4418 0.4071 0.0000
vt 0.7960 0.4914 0.0000
vt 0.8386 0.4754 0.0000
vt 0.6712 0.4688 0.0000
vt 0.7049 0.4515 0.0000
vt 0.4186 0.5077 0.0000
vt 0.3966 0.5265 0.0000
vt 0.4856 0.4639 0.0000
vt 0.4627 0.4731 0.0000
vt 0.7345 0.4403 0.0000
vt 0.7859 0.4213 0.0000
vt 0.4161 0.0823 0.0000
vt 0.4289 0.1253 0.0000
vt 0.3985 0.1956 0.0000
vt 0.3684 0.0561 0.0000
vt 0.4385 0.0760 0.0000
vt 0.4596 0.1236 0.0000
vt 0.4637 0.1620 0.0000
vt 0.4450 0.2180 0.0000
vt 0.4035 0.1974 0.0000
vt 0.4359 0.1544 0.0000
vt 0.5283 0.8483 0.0000
vt 0.5567 0.8690 0.0000
vt 0.5444 0.8920 0.0000
vt 0.5233 0.8747 0.0000
vt 0.5730 0.9181 0.0000
vt 0.5878 0.9026 0.0000
vt 0.6227 0.9504 0.0000
vt 0.5755 0.9702 0.0000
vt 0.4743 0.0933 0.0000
vt 0.4930 0.1492 0.0000
vt 0.4955 0.1704 0.0000
vt 0.4750 0.2278 0.0000
vt 0.5347 0.8185 0.0000
vt 0.5502 0.8342 0.0000
vt 0.5896 0.8673 0.0000
vt 0.6502 0.8785 0.0000
vt 0.5335 0.1297 0.0000
vt 0.5295 0.1732 0.0000
vt 0.5279 0.2061 0.0000
vt 0.5122 0.2477 0.0000
vt 0.5179 0.7773 0.0000
vt 0.5445 0.7944 0.0000
vt 0.5857 0.8039 0.0000
vt 0.6255 0.7966 0.0000
vt 0.6628 0.4102 0.0000
vt 0.6333 0.4266 0.0000
vt 0.4282 0.5644 0.0000
vt 0.4119 0.5780 0.0000
vt 0.4921 0.5263 0.0000
vt 0.4695 0.5361 0.0000
vt 0.7281 0.3829 0.0000
vt 0.6843 0.4021 0.0000
vt 0.5097 0.5675 0.0000
vt 0.4833 0.5807 0.0000
vt 0.6163 0.3957 0.0000
vt 0.6494 0.3784 0.0000
vt 0.4487 0.5986 0.0000
vt 0.4325 0.6049 0.0000
vt 0.6632 0.3671 0.0000
vt 0.6922 0.3459 0.0000
vt 0.6682 0.3062 0.0000
vt 0.6401 0.2759 0.0000
vt 0.6625 0.2592 0.0000
vt 0.6925 0.2891 0.0000
vt 0.4725 0.6687 0.0000
vt 0.4414 0.6892 0.0000
vt 0.4232 0.6528 0.0000
vt 0.4503 0.6339 0.0000
vt 0.5029 0.6178 0.0000
vt 0.5135 0.6542 0.0000
vt 0.4871 0.6633 0.0000
vt 0.4679 0.6284 0.0000
vt 0.6063 0.3049 0.0000
vt 0.6210 0.2935 0.0000
vt 0.6431 0.3300 0.0000
vt 0.6307 0.3438 0.0000
vt 0.5926 0.2006 0.0000
vt 0.6122 0.1779 0.0000
vt 0.6419 0.2318 0.0000
vt 0.6185 0.2466 0.0000
vt 0.4970 0.7336 0.0000
vt 0.4699 0.7493 0.0000
vt 0.4598 0.7215 0.0000
vt 0.4870 0.7022 0.0000
vt 0.5276 0.6855 0.0000
vt 0.5530 0.7267 0.0000
vt 0.5268 0.7281 0.0000
vt 0.5020 0.6966 0.0000
vt 0.5590 0.2492 0.0000
vt 0.5857 0.2279 0.0000
vt 0.5986 0.2631 0.0000
vt 0.5832 0.2752 0.0000
vt 0.5592 0.0966 0.0000
vt 0.4753 0.7728 0.0000
vt 0.3631 0.2643 0.0000
vt 0.3931 0.2855 0.0000
vt 0.9274 0.7142 0.0000
vt 0.1063 0.4224 0.0000
vt 0.0468 0.3667 0.0000
vt 0.9661 0.5680 0.0000
vt 0.7178 0.3288 0.0000
vt 0.4034 0.6235 0.0000
vt 0.4009 0.2507 0.0000
vt 0.3685 0.2295 0.0000
vt 0.1454 0.4231 0.0000
vt 0.8203 0.8975 0.0000
vt 0.2062 0.4014 0.0000
vt 0.8588 0.8511 0.0000
vt 0.2468 0.4008 0.0000
vt 0.8797 0.8230 0.0000
vt 0.3089 0.3895 0.0000
vt 0.9125 0.7393 0.0000
vt 0.3236 0.4334 0.0000
vt 0.9191 0.4951 0.0000
vt 0.3445 0.4796 0.0000
vt 0.8613 0.4553 0.0000
vt 0.3690 0.5468 0.0000
vt 0.8056 0.4048 0.0000
vt 0.4741 0.8872 0.0000
vt 0.4709 0.8838 0.0000
vt 0.4708 0.8408 0.0000
vt 0.4115 0.0202 0.0000
vt 0.4748 0.8120 0.0000
vt 0.4940 0.0324 0.0000
vt 0.3867 0.5958 0.0000
vt 0.7485 0.3670 0.0000
vt 0.5387 0.6439 0.0000
vt 0.5288 0.6062 0.0000
vt 0.5740 0.3237 0.0000
vt 0.5979 0.3619 0.0000
vt 0.5511 0.6727 0.0000
vt 0.5807 0.7199 0.0000
vt 0.5527 0.2893 0.0000
vt 0.5309 0.2657 0.0000
# 204 texture coords

o CoralReef2
g CoralReef2
usemtl CoralReef2_Model_wire_115132022
s off
f 1/1/1 2/2/2 3/3/3 4/4/4 
f 5/5/5 6/6/6 7/7/7 8/8/8 
f 4/4/4 9/9/9 10/10/10 1/1/1 
f 11/11/11 12/12/12 13/13/13 14/14/14 
f 15/15/15 16/16/16 17/17/17 18/18/18 
f 19/19/19 2/20/2 20/21/20 21/22/21 
f 9/9/9 22/23/22 23/24/23 10/10/10 
f 12/12/12 24/25/24 25/26/25 13/13/13 
f 16/16/16 26/27/26 27/28/27 17/17/17 
f 21/22/21 20/21/20 28/29/28 29/30/29 
f 22/23/22 30/31/30 31/32/31 23/24/23 
f 24/25/24 32/33/32 33/34/33 25/26/25 
f 27/28/27 26/27/26 34/35/34 35/36/35 
f 29/30/29 28/29/28 36/37/36 37/38/37 
f 30/31/30 38/39/38 39/40/39 31/32/31 
f 33/34/33 32/33/32 40/41/40 41/42/41 
f 35/36/35 34/35/34 42/43/42 43/44/43 
f 37/38/37 36/37/36 44/45/44 45/46/45 
f 38/39/38 46/47/46 47/48/47 39/40/39 
f 43/44/43 42/43/42 48/49/48 49/50/49 
f 45/46/45 44/45/44 50/51/50 51/52/51 
f 40/41/40 52/53/52 53/54/53 41/42/41 
f 43/44/43 49/50/49 54/55/54 55/56/55 
f 56/57/56 57/58/57 58/59/58 59/60/59 
f 60/61/60 61/62/61 62/63/62 63/64/63 
f 52/53/52 64/65/64 65/66/65 53/54/53 
f 55/56/55 54/55/54 66/67/66 67/68/67 
f 59/60/59 58/59/58 68/69/68 69/70/69 
f 62/63/62 70/71/70 71/72/71 63/64/63 
f 64/65/64 72/73/72 73/74/73 65/66/65 
f 67/68/67 66/67/66 74/75/74 75/76/75 
f 69/70/69 68/69/68 76/77/76 77/78/77 
f 70/71/70 78/79/78 79/80/79 71/72/71 
f 80/81/80 81/82/81 82/83/82 83/84/83 
f 84/85/84 85/86/85 81/82/81 80/81/80 
f 86/87/86 87/88/87 88/89/88 89/90/89 
f 90/91/90 91/92/91 92/93/92 93/94/93 
f 94/95/94 95/96/95 96/97/96 83/98/83 
f 97/99/97 98/100/98 85/86/85 84/85/84 
f 99/101/99 100/102/100 87/88/87 86/87/86 
f 101/103/101 102/104/102 91/92/91 90/91/90 
f 103/105/103 104/106/104 96/97/96 95/96/95 
f 105/107/105 106/108/106 98/100/98 97/99/97 
f 107/109/107 108/110/108 100/102/100 99/101/99 
f 101/103/101 109/111/109 110/112/110 102/104/102 
f 103/105/103 111/113/111 112/114/112 104/106/104 
f 113/115/113 73/74/73 72/73/72 114/116/114 
f 75/76/75 74/75/74 115/117/115 116/118/116 
f 77/78/77 76/77/76 117/119/117 118/120/118 
f 119/121/119 79/80/79 78/79/78 120/122/120 
f 118/120/118 117/119/117 121/123/121 122/124/122 
f 114/116/114 123/125/123 124/126/124 113/115/113 
f 116/118/116 115/117/115 125/127/125 126/128/126 
f 120/122/120 127/129/127 128/130/128 119/121/119 
f 129/131/129 130/132/130 131/133/131 132/134/132 
f 133/135/133 134/136/134 135/137/135 136/138/136 
f 137/139/137 138/140/138 139/141/139 140/142/140 
f 141/143/141 142/144/142 143/145/143 144/146/144 
f 145/147/145 146/148/146 147/149/147 148/150/148 
f 149/151/149 150/152/150 151/153/151 152/154/152 
f 153/155/153 154/156/154 155/157/155 156/158/156 
f 157/159/157 158/160/158 159/161/159 160/162/160 
f 105/107/105 112/163/112 146/148/146 145/147/145 
f 149/151/149 109/111/109 108/164/108 150/152/150 
f 154/156/154 111/113/111 110/112/110 155/157/155 
f 107/109/107 106/108/106 158/160/158 157/159/157 
f 61/62/61 60/61/60 6/6/6 46/47/46 
f 161/165/161 162/166/162 48/49/48 51/52/51 
f 47/48/47 5/5/5 8/8/8 50/167/50 
f 56/57/56 59/60/59 54/55/54 49/50/49 
f 41/42/41 53/54/53 62/63/62 61/62/61 
f 54/55/54 59/60/59 69/70/69 66/67/66 
f 53/54/53 65/66/65 70/71/70 62/63/62 
f 66/67/66 69/70/69 77/78/77 74/75/74 
f 65/66/65 73/74/73 78/79/78 70/71/70 
f 89/90/89 88/89/88 82/83/82 81/82/81 
f 86/87/86 89/90/89 81/82/81 85/86/85 
f 95/96/95 94/95/94 92/93/92 91/92/91 
f 99/101/99 86/87/86 85/86/85 98/100/98 
f 103/105/103 95/96/95 91/92/91 102/104/102 
f 106/108/106 107/109/107 99/101/99 98/100/98 
f 111/113/111 103/105/103 102/104/102 110/112/110 
f 74/75/74 77/78/77 118/120/118 115/117/115 
f 73/74/73 113/115/113 120/122/120 78/79/78 
f 115/117/115 118/120/118 122/124/122 125/127/125 
f 113/115/113 124/126/124 127/129/127 120/122/120 
f 152/154/152 133/135/133 139/141/139 156/158/156 
f 159/161/159 148/150/148 130/132/130 142/144/142 
f 149/151/149 152/154/152 156/158/156 155/157/155 
f 158/160/158 145/147/145 148/150/148 159/161/159 
f 109/111/109 149/151/149 155/157/155 110/112/110 
f 106/108/106 105/107/105 145/147/145 158/160/158 
f 18/18/18 11/168/11 3/169/3 15/15/15 
f 6/6/6 60/61/60 57/170/57 7/7/7 
f 4/4/4 14/14/14 13/13/13 9/9/9 
f 19/19/19 21/22/21 16/16/16 15/15/15 
f 9/9/9 13/13/13 25/26/25 22/23/22 
f 16/16/16 21/22/21 29/30/29 26/27/26 
f 25/26/25 33/34/33 30/31/30 22/23/22 
f 26/27/26 29/30/29 37/38/37 34/35/34 
f 33/34/33 41/42/41 38/39/38 30/31/30 
f 34/35/34 37/38/37 45/46/45 42/43/42 
f 41/42/41 61/62/61 46/47/46 38/39/38 
f 42/43/42 45/46/45 51/52/51 48/49/48 
f 5/5/5 47/48/47 46/47/46 6/6/6 
f 162/166/162 56/57/56 49/50/49 48/49/48 
f 148/150/148 147/149/147 131/133/131 130/132/130 
f 152/154/152 151/153/151 134/136/134 133/135/133 
f 138/140/138 153/155/153 156/158/156 139/141/139 
f 160/162/160 159/161/159 142/144/142 141/143/141 
f 133/135/133 136/138/136 140/142/140 139/141/139 
f 129/131/129 143/145/143 142/144/142 130/132/130 
f 128/130/128 129/131/129 132/134/132 121/171/121 
f 136/138/136 135/137/135 123/172/123 126/128/126 
f 125/127/125 140/142/140 136/138/136 126/128/126 
f 143/145/143 129/131/129 128/130/128 127/129/127 
f 122/124/122 137/139/137 140/142/140 125/127/125 
f 144/146/144 143/145/143 127/129/127 124/126/124 
f 19/19/19 15/15/15 3/169/3 2/20/2 
f 7/173/7 162/166/162 161/165/161 8/174/8 
f 18/18/18 17/17/17 12/175/12 11/168/11 
f 1/1/1 10/10/10 20/176/20 2/2/2 
f 12/175/12 17/17/17 27/28/27 24/177/24 
f 10/10/10 23/24/23 28/178/28 20/176/20 
f 24/177/24 27/28/27 35/36/35 32/179/32 
f 23/24/23 31/32/31 36/180/36 28/178/28 
f 35/36/35 43/44/43 40/181/40 32/179/32 
f 31/32/31 39/40/39 44/182/44 36/180/36 
f 39/40/39 47/48/47 50/167/50 44/182/44 
f 40/181/40 43/44/43 55/56/55 52/183/52 
f 60/61/60 63/64/63 58/184/58 57/170/57 
f 52/183/52 55/56/55 67/68/67 64/185/64 
f 63/64/63 71/72/71 68/186/68 58/184/58 
f 64/185/64 67/68/67 75/76/75 72/187/72 
f 71/72/71 79/80/79 76/188/76 68/186/68 
f 82/189/82 92/93/92 94/95/94 83/98/83 
f 90/91/90 93/94/93 88/190/88 87/191/87 
f 96/192/96 84/85/84 80/81/80 83/84/83 
f 101/103/101 90/91/90 87/191/87 100/193/100 
f 97/99/97 84/85/84 96/192/96 104/194/104 
f 109/111/109 101/103/101 100/193/100 108/164/108 
f 112/163/112 105/107/105 97/99/97 104/194/104 
f 72/187/72 75/76/75 116/118/116 114/195/114 
f 79/80/79 119/121/119 117/196/117 76/188/76 
f 119/121/119 128/130/128 121/171/121 117/196/117 
f 114/195/114 116/118/116 126/128/126 123/172/123 
f 131/197/131 138/140/138 137/139/137 132/198/132 
f 134/199/134 141/143/141 144/146/144 135/200/135 
f 154/156/154 153/155/153 147/201/147 146/202/146 
f 157/159/157 160/162/160 151/203/151 150/204/150 
f 111/113/111 154/156/154 146/202/146 112/114/112 
f 108/110/108 107/109/107 157/159/157 150/204/150 
f 8/174/8 161/165/161 51/52/51 50/51/50 
f 93/94/93 92/93/92 82/189/82 88/190/88 
f 14/14/14 4/4/4 3/3/3 11/11/11 
f 57/58/57 56/57/56 162/166/162 7/173/7 
f 153/155/153 138/140/138 131/197/131 147/201/147 
f 160/162/160 141/143/141 134/199/134 151/203/151 
f 132/198/132 137/139/137 122/124/122 121/123/121 
f 144/146/144 124/126/124 123/125/123 135/200/135 
# 160 polygons

