# 3ds Max Wavefront OBJ Exporter v0.99 - (c)2007 guruware
# File Created: 02.03.2025 16:28:49

mtllib ArenaPit_Model.mtl

#
# object ArenaPit
#

v  37.9575 -2.8973 5.6760
v  34.7775 -2.8973 -12.3585
v  34.7775 26.5343 -12.3585
v  37.9575 26.5343 5.6760
v  25.6212 -2.8973 -28.2177
v  25.6212 26.5343 -28.2177
v  11.5929 -2.8973 -39.9889
v  11.5929 26.5343 -39.9889
v  -5.6154 -2.8973 -46.2522
v  -5.6154 26.5343 -46.2522
v  -23.9281 -2.8973 -46.2522
v  -23.9281 26.5343 -46.2522
v  -41.1364 -2.8973 -39.9889
v  -41.1364 26.5343 -39.9889
v  -55.1647 -2.8973 -28.2177
v  -55.1647 26.5343 -28.2177
v  -64.3211 -2.8973 -12.3585
v  -64.3211 26.5343 -12.3585
v  -67.5010 -2.8973 5.6760
v  -67.5010 26.5343 5.6760
v  -64.3211 -2.8973 23.7104
v  -64.3211 26.5343 23.7104
v  -55.1647 -2.8973 39.5697
v  -55.1647 26.5343 39.5697
v  -41.1364 -2.8973 51.3408
v  -41.1364 26.5343 51.3408
v  -23.9281 -2.8973 57.6042
v  -23.9281 26.5343 57.6042
v  -5.6154 -2.8973 57.6042
v  -5.6154 26.5343 57.6042
v  11.5928 -2.8973 51.3409
v  11.5928 26.5343 51.3409
v  25.6212 -2.8973 39.5697
v  25.6212 26.5343 39.5697
v  34.7775 -2.8973 23.7105
v  34.7775 26.5343 23.7105
v  27.7790 36.4420 -9.8112
v  30.5098 36.4420 5.6760
v  19.9159 36.4420 -23.4305
v  7.8690 36.4420 -33.5390
v  -6.9087 36.4420 -38.9177
v  -22.6348 36.4420 -38.9177
v  -37.4125 36.4420 -33.5390
v  -49.4595 36.4420 -23.4305
v  -57.3225 36.4420 -9.8112
v  -60.0533 36.4420 5.6760
v  -57.3225 36.4420 21.1632
v  -49.4595 36.4420 34.7824
v  -37.4126 36.4420 44.8910
v  -22.6348 36.4420 50.2696
v  -6.9087 36.4420 50.2696
v  7.8690 36.4420 44.8910
v  19.9159 36.4420 34.7824
v  27.7790 36.4420 21.1632
v  20.5936 38.9354 -7.1960
v  22.8633 38.9354 5.6760
v  14.0584 38.9354 -18.5154
v  4.0458 38.9354 -26.9169
v  -8.2365 38.9354 -31.3873
v  -21.3070 38.9354 -31.3873
v  -33.5893 38.9354 -26.9169
v  -43.6019 38.9354 -18.5154
v  -50.1372 38.9354 -7.1960
v  -52.4068 38.9354 5.6760
v  -50.1372 38.9354 18.5479
v  -43.6019 38.9354 29.8673
v  -33.5893 38.9354 38.2689
v  -21.3070 38.9354 42.7393
v  -8.2365 38.9354 42.7393
v  4.0458 38.9354 38.2689
v  14.0584 38.9354 29.8674
v  20.5936 38.9354 18.5480
v  14.8599 44.5004 -5.1091
v  16.7616 44.5004 5.6760
v  9.3842 44.5004 -14.5933
v  0.9949 44.5004 -21.6327
v  -9.2961 44.5004 -25.3783
v  -20.2475 44.5004 -25.3783
v  -30.5384 44.5004 -21.6327
v  -38.9277 44.5004 -14.5933
v  -44.4034 44.5004 -5.1091
v  -46.3051 44.5004 5.6760
v  -44.4034 44.5004 16.4610
v  -38.9277 44.5004 25.9452
v  -30.5384 44.5004 32.9847
v  -20.2475 44.5004 36.7303
v  -9.2961 44.5004 36.7303
v  0.9949 44.5004 32.9847
v  9.3842 44.5004 25.9452
v  14.8599 44.5004 16.4610
v  4.5685 44.5004 -1.3633
v  5.8097 44.5004 5.6760
v  0.9946 44.5004 -7.5535
v  -4.4810 44.5004 -12.1481
v  -11.1978 44.5004 -14.5928
v  -18.3457 44.5004 -14.5928
v  -25.0625 44.5004 -12.1481
v  -30.5381 44.5004 -7.5535
v  -34.1120 44.5004 -1.3633
v  -35.3532 44.5004 5.6760
v  -34.1120 44.5004 12.7152
v  -30.5381 44.5004 18.9055
v  -25.0625 44.5004 23.5000
v  -18.3457 44.5004 25.9448
v  -11.1978 44.5004 25.9448
v  -4.4810 44.5004 23.5000
v  0.9945 44.5004 18.9055
v  4.5685 44.5004 12.7153
# 108 vertices

vn 1.0000 0.0000 0.0000
vn 0.9397 0.0000 -0.3420
vn 0.8944 0.3067 -0.3255
vn 0.9518 0.3067 0.0000
vn 0.7660 0.0000 -0.6428
vn 0.7291 0.3067 -0.6118
vn 0.5000 0.0000 -0.8660
vn 0.4759 0.3067 -0.8243
vn 0.1736 -0.0000 -0.9848
vn 0.1653 0.3067 -0.9373
vn -0.1736 0.0000 -0.9848
vn -0.1653 0.3067 -0.9373
vn -0.5000 0.0000 -0.8660
vn -0.4759 0.3067 -0.8243
vn -0.7660 0.0000 -0.6428
vn -0.7291 0.3067 -0.6118
vn -0.9397 0.0000 -0.3420
vn -0.8944 0.3067 -0.3255
vn -1.0000 0.0000 0.0000
vn -0.9518 0.3067 -0.0000
vn -0.9397 0.0000 0.3420
vn -0.8944 0.3067 0.3255
vn -0.7660 -0.0000 0.6428
vn -0.7291 0.3067 0.6118
vn -0.5000 0.0000 0.8660
vn -0.4759 0.3067 0.8243
vn -0.1736 0.0000 0.9848
vn -0.1653 0.3067 0.9374
vn 0.1736 0.0000 0.9848
vn 0.1653 0.3067 0.9373
vn 0.5000 0.0000 0.8660
vn 0.4759 0.3067 0.8243
vn 0.7660 0.0000 0.6428
vn 0.7291 0.3067 0.6118
vn 0.9397 0.0000 0.3420
vn 0.8944 0.3067 0.3255
vn 0.5665 0.7978 -0.2062
vn 0.6029 0.7978 0.0000
vn 0.4618 0.7978 -0.3875
vn 0.3014 0.7978 -0.5221
vn 0.1047 0.7978 -0.5937
vn -0.1047 0.7978 -0.5937
vn -0.3014 0.7978 -0.5221
vn -0.4618 0.7978 -0.3875
vn -0.5665 0.7978 -0.2062
vn -0.6029 0.7978 -0.0000
vn -0.5665 0.7978 0.2062
vn -0.4618 0.7978 0.3875
vn -0.3014 0.7978 0.5221
vn -0.1047 0.7978 0.5937
vn 0.1047 0.7978 0.5937
vn 0.3014 0.7978 0.5221
vn 0.4618 0.7978 0.3875
vn 0.5665 0.7978 0.2062
vn 0.4561 0.8743 -0.1660
vn 0.4854 0.8743 0.0000
vn 0.3718 0.8743 -0.3120
vn 0.2427 0.8743 -0.4203
vn 0.0843 0.8743 -0.4780
vn -0.0843 0.8743 -0.4780
vn -0.2427 0.8743 -0.4203
vn -0.3718 0.8743 -0.3120
vn -0.4561 0.8743 -0.1660
vn -0.4854 0.8743 -0.0000
vn -0.4561 0.8743 0.1660
vn -0.3718 0.8743 0.3120
vn -0.2427 0.8743 0.4203
vn -0.0843 0.8743 0.4780
vn 0.0843 0.8743 0.4780
vn 0.2427 0.8743 0.4203
vn 0.3718 0.8743 0.3120
vn 0.4561 0.8743 0.1660
vn 0.3714 0.9186 -0.1352
vn 0.3952 0.9186 0.0000
vn 0.3028 0.9186 -0.2540
vn 0.1976 0.9186 -0.3423
vn 0.0686 0.9186 -0.3892
vn -0.0686 0.9186 -0.3892
vn -0.1976 0.9186 -0.3423
vn -0.3028 0.9186 -0.2540
vn -0.3714 0.9186 -0.1352
vn -0.3952 0.9186 -0.0000
vn -0.3714 0.9186 0.1352
vn -0.3028 0.9186 0.2540
vn -0.1976 0.9186 0.3423
vn -0.0686 0.9186 0.3892
vn 0.0686 0.9186 0.3892
vn 0.1976 0.9186 0.3423
vn 0.3028 0.9186 0.2540
vn 0.3714 0.9186 0.1352
vn -0.0000 1.0000 0.0000
vn 0.0000 1.0000 0.0000
vn 0.0000 1.0000 -0.0000
vn -0.0000 1.0000 -0.0000
# 94 vertex normals

vt 0.7500 0.0000 1.0000
vt 0.8056 0.0000 1.0000
vt 0.8056 1.0000 1.0000
vt 0.7500 1.0000 1.0000
vt 0.8611 0.0000 1.0000
vt 0.8611 1.0000 1.0000
vt 0.9167 0.0000 1.0000
vt 0.9167 1.0000 1.0000
vt 0.9722 0.0000 1.0000
vt 0.9722 1.0000 1.0000
vt -0.0278 0.0000 1.0000
vt 0.0278 0.0000 1.0000
vt 0.0278 1.0000 1.0000
vt -0.0278 1.0000 1.0000
vt 0.0833 0.0000 1.0000
vt 0.0833 1.0000 1.0000
vt 0.1389 0.0000 1.0000
vt 0.1389 1.0000 1.0000
vt 0.1944 0.0000 1.0000
vt 0.1944 1.0000 1.0000
vt 0.2500 0.0000 1.0000
vt 0.2500 1.0000 1.0000
vt 0.3056 0.0000 1.0000
vt 0.3056 1.0000 1.0000
vt 0.3611 0.0000 1.0000
vt 0.3611 1.0000 1.0000
vt 0.4167 0.0000 1.0000
vt 0.4167 1.0000 1.0000
vt 0.4722 0.0000 1.0000
vt 0.4722 1.0000 1.0000
vt 0.5278 0.0000 1.0000
vt 0.5278 1.0000 1.0000
vt 0.5833 0.0000 1.0000
vt 0.5833 1.0000 1.0000
vt 0.6389 0.0000 1.0000
vt 0.6389 1.0000 1.0000
vt 0.6944 0.0000 1.0000
vt 0.6944 1.0000 1.0000
# 38 texture coords

o ArenaPit
g ArenaPit
usemtl wire_084166149
s 8
f 1/1/1 2/2/2 3/3/3 4/4/4 
f 2/2/2 5/5/5 6/6/6 3/3/3 
f 5/5/5 7/7/7 8/8/8 6/6/6 
f 7/7/7 9/9/9 10/10/10 8/8/8 
f 9/11/9 11/12/11 12/13/12 10/14/10 
f 11/12/11 13/15/13 14/16/14 12/13/12 
f 13/15/13 15/17/15 16/18/16 14/16/14 
f 15/17/15 17/19/17 18/20/18 16/18/16 
f 17/19/17 19/21/19 20/22/20 18/20/18 
f 19/21/19 21/23/21 22/24/22 20/22/20 
f 21/23/21 23/25/23 24/26/24 22/24/22 
f 23/25/23 25/27/25 26/28/26 24/26/24 
f 25/27/25 27/29/27 28/30/28 26/28/26 
f 27/29/27 29/31/29 30/32/30 28/30/28 
f 29/31/29 31/33/31 32/34/32 30/32/30 
f 31/33/31 33/35/33 34/36/34 32/34/32 
f 33/35/33 35/37/35 36/38/36 34/36/34 
f 35/37/35 1/1/1 4/4/4 36/38/36 
s off
f 4/4/4 3/3/3 37/3/37 38/4/38 
f 3/3/3 6/6/6 39/6/39 37/3/37 
f 6/6/6 8/8/8 40/8/40 39/6/39 
f 8/8/8 10/10/10 41/10/41 40/8/40 
f 10/14/10 12/13/12 42/13/42 41/14/41 
f 12/13/12 14/16/14 43/16/43 42/13/42 
f 14/16/14 16/18/16 44/18/44 43/16/43 
f 16/18/16 18/20/18 45/20/45 44/18/44 
f 18/20/18 20/22/20 46/22/46 45/20/45 
f 20/22/20 22/24/22 47/24/47 46/22/46 
f 22/24/22 24/26/24 48/26/48 47/24/47 
f 24/26/24 26/28/26 49/28/49 48/26/48 
f 26/28/26 28/30/28 50/30/50 49/28/49 
f 28/30/28 30/32/30 51/32/51 50/30/50 
f 30/32/30 32/34/32 52/34/52 51/32/51 
f 32/34/32 34/36/34 53/36/53 52/34/52 
f 34/36/34 36/38/36 54/38/54 53/36/53 
f 36/38/36 4/4/4 38/4/38 54/38/54 
f 38/4/38 37/3/37 55/3/55 56/4/56 
f 37/3/37 39/6/39 57/6/57 55/3/55 
f 39/6/39 40/8/40 58/8/58 57/6/57 
f 40/8/40 41/10/41 59/10/59 58/8/58 
f 41/14/41 42/13/42 60/13/60 59/14/59 
f 42/13/42 43/16/43 61/16/61 60/13/60 
f 43/16/43 44/18/44 62/18/62 61/16/61 
f 44/18/44 45/20/45 63/20/63 62/18/62 
f 45/20/45 46/22/46 64/22/64 63/20/63 
f 46/22/46 47/24/47 65/24/65 64/22/64 
f 47/24/47 48/26/48 66/26/66 65/24/65 
f 48/26/48 49/28/49 67/28/67 66/26/66 
f 49/28/49 50/30/50 68/30/68 67/28/67 
f 50/30/50 51/32/51 69/32/69 68/30/68 
f 51/32/51 52/34/52 70/34/70 69/32/69 
f 52/34/52 53/36/53 71/36/71 70/34/70 
f 53/36/53 54/38/54 72/38/72 71/36/71 
f 54/38/54 38/4/38 56/4/56 72/38/72 
f 56/4/56 55/3/55 73/3/73 74/4/74 
f 55/3/55 57/6/57 75/6/75 73/3/73 
f 57/6/57 58/8/58 76/8/76 75/6/75 
f 58/8/58 59/10/59 77/10/77 76/8/76 
f 59/14/59 60/13/60 78/13/78 77/14/77 
f 60/13/60 61/16/61 79/16/79 78/13/78 
f 61/16/61 62/18/62 80/18/80 79/16/79 
f 62/18/62 63/20/63 81/20/81 80/18/80 
f 63/20/63 64/22/64 82/22/82 81/20/81 
f 64/22/64 65/24/65 83/24/83 82/22/82 
f 65/24/65 66/26/66 84/26/84 83/24/83 
f 66/26/66 67/28/67 85/28/85 84/26/84 
f 67/28/67 68/30/68 86/30/86 85/28/85 
f 68/30/68 69/32/69 87/32/87 86/30/86 
f 69/32/69 70/34/70 88/34/88 87/32/87 
f 70/34/70 71/36/71 89/36/89 88/34/88 
f 71/36/71 72/38/72 90/38/90 89/36/89 
f 72/38/72 56/4/56 74/4/74 90/38/90 
f 74/4/74 73/3/73 91/3/91 92/4/91 
f 73/3/73 75/6/75 93/6/91 91/3/91 
f 75/6/75 76/8/76 94/8/91 93/6/91 
f 76/8/76 77/10/77 95/10/91 94/8/91 
f 77/14/77 78/13/78 96/13/92 95/14/91 
f 78/13/78 79/16/79 97/16/92 96/13/92 
f 79/16/79 80/18/80 98/18/92 97/16/92 
f 80/18/80 81/20/81 99/20/92 98/18/92 
f 81/20/81 82/22/82 100/22/92 99/20/92 
f 82/22/82 83/24/83 101/24/93 100/22/92 
f 83/24/83 84/26/84 102/26/93 101/24/93 
f 84/26/84 85/28/85 103/28/93 102/26/93 
f 85/28/85 86/30/86 104/30/93 103/28/93 
f 86/30/86 87/32/87 105/32/94 104/30/93 
f 87/32/87 88/34/88 106/34/94 105/32/94 
f 88/34/88 89/36/89 107/36/94 106/34/94 
f 89/36/89 90/38/90 108/38/94 107/36/94 
f 90/38/90 74/4/74 92/4/91 108/38/94 
f 99/20/92 100/22/92 92/4/91 91/3/91 
f 100/22/92 101/24/93 108/38/94 92/4/91 
f 101/24/93 102/26/93 107/36/94 108/38/94 
f 102/26/93 103/28/93 106/34/94 107/36/94 
f 98/18/92 99/20/92 91/3/91 93/6/91 
f 97/16/92 98/18/92 93/6/91 94/8/91 
f 96/13/92 97/16/92 94/8/91 95/10/91 
f 103/28/93 104/30/93 105/32/94 106/34/94 
# 98 polygons

